<svg id="Warstwa_1" data-name="Warstwa 1" xmlns="http://www.w3.org/2000/svg" viewBox="0 0 391.81 92.58"><defs><style>.cls-1{fill:#00674c;}.cls-2{fill:#ceef9d;}</style></defs><title>#_thinkpeople_CElite</title><rect class="cls-1" width="391.81" height="92.58" rx="14.17"/><path class="cls-2" d="M363.08,66.05a12.7,12.7,0,0,0,4.05-2.14,3.44,3.44,0,0,0,1.55-2.72,2.78,2.78,0,0,0-2.82-2.77,4.24,4.24,0,0,0-1.89.5c-.41.22-.86.49-1.36.8a7.17,7.17,0,0,1-2,.81,13,13,0,0,1-3.27.33A8.54,8.54,0,0,1,350,56.62a9.73,9.73,0,0,1-1.25-5.08,14.19,14.19,0,0,1,.61-4.49A7.16,7.16,0,0,1,351,44.22a6,6,0,0,1,2.49-1.5,10.77,10.77,0,0,1,3.11-.44,7.28,7.28,0,0,1,3.25.75,7.55,7.55,0,0,1,2.55,2,5.13,5.13,0,0,1,1.14,2.89v1.49l1.22-1.11H344.39l1.66,5.55h21.19a3.54,3.54,0,0,0,2.33-.83,2.86,2.86,0,0,0,1.06-2.16,14.2,14.2,0,0,0-1.14-5.66,15.58,15.58,0,0,0-3.08-4.69,14.57,14.57,0,0,0-4.47-3.19,12.54,12.54,0,0,0-5.35-1.17,13.63,13.63,0,0,0-6.93,1.89,14.28,14.28,0,0,0-5.3,5.41,16.84,16.84,0,0,0-2,8.52,15.61,15.61,0,0,0,1.86,7.65A13.57,13.57,0,0,0,349.52,65a17.3,17.3,0,0,0,13.56,1.06ZM336.79,28.74a3.37,3.37,0,0,0-.92-2.41,3.09,3.09,0,0,0-2.36-1,3.31,3.31,0,0,0-3.38,3.38V63a3.32,3.32,0,0,0,.94,2.41,3.12,3.12,0,0,0,2.33,1A3.33,3.33,0,0,0,336.79,63Zm-23,14.76a8.3,8.3,0,0,1,2.83,3.3,10.65,10.65,0,0,1,1,4.74,10.84,10.84,0,0,1-1,4.74,8.22,8.22,0,0,1-2.83,3.36,7.41,7.41,0,0,1-4.24,1.22,7.54,7.54,0,0,1-4.27-1.22,8.06,8.06,0,0,1-2.86-3.36,10.7,10.7,0,0,1-1-4.74,10.52,10.52,0,0,1,1-4.74,8.14,8.14,0,0,1,2.86-3.3,7.46,7.46,0,0,1,4.27-1.22A7.34,7.34,0,0,1,313.79,43.5Zm-7.1-6.66a12.15,12.15,0,0,0-3.08,1.69,11.5,11.5,0,0,0-2.11,2,3.11,3.11,0,0,0-.77,1.75l.94.5V40.11a3.36,3.36,0,0,0-.94-2.41,3.19,3.19,0,0,0-2.39-1,3.15,3.15,0,0,0-2.38,1,3.33,3.33,0,0,0-.95,2.41v34a3.3,3.3,0,0,0,.95,2.44,3.46,3.46,0,0,0,4.77,0,3.34,3.34,0,0,0,.94-2.41V59.53l-1.72.72a3.63,3.63,0,0,0,.8,1.92A10.8,10.8,0,0,0,303,64.41a13.35,13.35,0,0,0,3.41,1.83,11.85,11.85,0,0,0,4.16.72,12.14,12.14,0,0,0,6.8-2,14.07,14.07,0,0,0,4.82-5.43,17.06,17.06,0,0,0,1.81-8,16.9,16.9,0,0,0-1.81-8,14.05,14.05,0,0,0-4.88-5.41,12.65,12.65,0,0,0-7-2A10.36,10.36,0,0,0,306.69,36.84Zm-25,19.61a8.46,8.46,0,0,1-3.05,3.25,8.35,8.35,0,0,1-8.49,0,8.53,8.53,0,0,1-3.05-3.25,9.93,9.93,0,0,1-1.14-4.85,10,10,0,0,1,1.14-4.91,8.53,8.53,0,0,1,3.05-3.25,8.35,8.35,0,0,1,8.49,0,8.46,8.46,0,0,1,3.05,3.25,10,10,0,0,1,1.14,4.91A9.93,9.93,0,0,1,281.67,56.45Zm5.77-12.87A14.79,14.79,0,0,0,282,38.14a15.74,15.74,0,0,0-15.25,0,14.79,14.79,0,0,0-5.44,5.44,15.59,15.59,0,0,0-2,8,15.58,15.58,0,0,0,2,8A14.41,14.41,0,0,0,266.75,65,16,16,0,0,0,282,65a14.41,14.41,0,0,0,5.44-5.41,15.58,15.58,0,0,0,2-8A15.6,15.6,0,0,0,287.44,43.58ZM247.86,66.05a12.7,12.7,0,0,0,4-2.14,3.47,3.47,0,0,0,1.55-2.72,2.78,2.78,0,0,0-2.83-2.77,4.23,4.23,0,0,0-1.88.5c-.41.22-.86.49-1.36.8a7.17,7.17,0,0,1-2,.81,13.09,13.09,0,0,1-3.28.33,8.54,8.54,0,0,1-7.4-4.24,9.73,9.73,0,0,1-1.25-5.08,13.91,13.91,0,0,1,.61-4.49,7.27,7.27,0,0,1,1.66-2.83,6.1,6.1,0,0,1,2.5-1.5,10.72,10.72,0,0,1,3.11-.44,7.24,7.24,0,0,1,3.24.75,7.49,7.49,0,0,1,2.56,2,5,5,0,0,1,1.13,2.89v1.49l1.22-1.11H229.16l1.67,5.55H252a3.56,3.56,0,0,0,2.33-.83,2.85,2.85,0,0,0,1.05-2.16,14.37,14.37,0,0,0-1.13-5.66,15.58,15.58,0,0,0-3.08-4.69,14.81,14.81,0,0,0-4.47-3.19,12.57,12.57,0,0,0-5.35-1.17,13.7,13.7,0,0,0-6.94,1.89,14.33,14.33,0,0,0-5.29,5.41,16.74,16.74,0,0,0-2,8.52A15.61,15.61,0,0,0,229,59.64,13.55,13.55,0,0,0,234.29,65a17.33,17.33,0,0,0,13.57,1.06ZM213,43.5a8.3,8.3,0,0,1,2.83,3.3,10.52,10.52,0,0,1,1,4.74,10.7,10.7,0,0,1-1,4.74A8.22,8.22,0,0,1,213,59.64a7.39,7.39,0,0,1-4.24,1.22,7.54,7.54,0,0,1-4.27-1.22,8.13,8.13,0,0,1-2.86-3.36,10.7,10.7,0,0,1-1-4.74,10.52,10.52,0,0,1,1-4.74,8.21,8.21,0,0,1,2.86-3.3,7.46,7.46,0,0,1,4.27-1.22A7.32,7.32,0,0,1,213,43.5Zm-7.1-6.66a12.15,12.15,0,0,0-3.08,1.69,11.83,11.83,0,0,0-2.11,2,3.19,3.19,0,0,0-.77,1.75l.94.5V40.11a3.32,3.32,0,0,0-.94-2.41,3.42,3.42,0,0,0-4.77,0,3.33,3.33,0,0,0-.95,2.41v34a3.3,3.3,0,0,0,.95,2.44,3.46,3.46,0,0,0,4.77,0,3.3,3.3,0,0,0,.94-2.41V59.53l-1.72.72a3.57,3.57,0,0,0,.81,1.92,10.49,10.49,0,0,0,2.27,2.24,13.35,13.35,0,0,0,3.41,1.83,11.89,11.89,0,0,0,4.16.72,12.14,12.14,0,0,0,6.8-2,14.18,14.18,0,0,0,4.83-5.43,17.17,17.17,0,0,0,1.8-8,17,17,0,0,0-1.8-8,14.08,14.08,0,0,0-4.89-5.41,12.65,12.65,0,0,0-7-2A10.4,10.4,0,0,0,205.89,36.84Zm-18.64,28.6a2.89,2.89,0,0,0,1.14-2.36,3.56,3.56,0,0,0-1-2.5l-10-10.87-5,4.66,10.26,10.87A3.17,3.17,0,0,0,185,66.35,3.6,3.6,0,0,0,187.25,65.44Zm-5.52-27.66L169,50l.28,7.66L186,42.33a3.32,3.32,0,0,0,1.34-2.49,3.16,3.16,0,0,0-1-2.06,2.9,2.9,0,0,0-2.22-1.05A3.36,3.36,0,0,0,181.73,37.78ZM168.92,65.44a3.32,3.32,0,0,0,.94-2.41V28.74a3.3,3.3,0,0,0-.94-2.41,3.42,3.42,0,0,0-4.77,0,3.31,3.31,0,0,0-1,2.41V63a3.33,3.33,0,0,0,1,2.41,3.42,3.42,0,0,0,4.77,0ZM142,36.76a11.18,11.18,0,0,0-2.89,1.52,14.07,14.07,0,0,0-2.22,2,10.66,10.66,0,0,0-1.44,2l.83.17V40.11a3.32,3.32,0,0,0-.94-2.41,3.42,3.42,0,0,0-4.77,0,3.33,3.33,0,0,0-.95,2.41V63a3.33,3.33,0,0,0,.95,2.41,3.42,3.42,0,0,0,4.77,0,3.32,3.32,0,0,0,.94-2.41V48.82a6.72,6.72,0,0,1,.81-3.3,6.07,6.07,0,0,1,2.33-2.36,7.32,7.32,0,0,1,3.74-.88,5.91,5.91,0,0,1,3.5.88,4.65,4.65,0,0,1,1.69,2.36,10.91,10.91,0,0,1,.47,3.3V63a3.32,3.32,0,0,0,.94,2.41,3.42,3.42,0,0,0,4.77,0,3.33,3.33,0,0,0,.95-2.41V48.82a23.27,23.27,0,0,0-.81-6.35,8.71,8.71,0,0,0-2.94-4.58c-1.42-1.14-3.5-1.72-6.24-1.72A10.1,10.1,0,0,0,142,36.76ZM122.1,32.54a2.52,2.52,0,0,0,.83-2.19V29.3a2.61,2.61,0,0,0-.78-2.17,4.58,4.58,0,0,0-2.72-.61,4.81,4.81,0,0,0-2.63.58,2.46,2.46,0,0,0-.86,2.2v1.05a2.61,2.61,0,0,0,.77,2.16,4.41,4.41,0,0,0,2.67.61A4.89,4.89,0,0,0,122.1,32.54Zm.66,7.57a3.32,3.32,0,0,0-.94-2.41,3.42,3.42,0,0,0-4.77,0,3.33,3.33,0,0,0-1,2.41V63a3.33,3.33,0,0,0,1,2.41,3.42,3.42,0,0,0,4.77,0,3.32,3.32,0,0,0,.94-2.41ZM96.19,36.76a11.47,11.47,0,0,0-2.83,1.52,12.05,12.05,0,0,0-2.16,2,11.67,11.67,0,0,0-1.39,2l.83.17V28.74a3.3,3.3,0,0,0-.94-2.41,3.42,3.42,0,0,0-4.77,0,3.31,3.31,0,0,0-1,2.41V63a3.33,3.33,0,0,0,1,2.41,3.42,3.42,0,0,0,4.77,0A3.32,3.32,0,0,0,90.64,63V48.82a7.16,7.16,0,0,1,.75-3.3,5.79,5.79,0,0,1,2.25-2.36,7,7,0,0,1,3.6-.88,5.43,5.43,0,0,1,3.33.88,4.57,4.57,0,0,1,1.61,2.36,11.27,11.27,0,0,1,.44,3.3V63a3.33,3.33,0,0,0,.95,2.41,3.42,3.42,0,0,0,4.77,0,3.32,3.32,0,0,0,.94-2.41V48.82a24.11,24.11,0,0,0-.78-6.35,8.75,8.75,0,0,0-2.85-4.58,9.37,9.37,0,0,0-6.08-1.72A9.49,9.49,0,0,0,96.19,36.76Zm-31-5.44a3.26,3.26,0,0,0-1,2.41v25A9.2,9.2,0,0,0,65,63a5.79,5.79,0,0,0,2.08,2.3,6.79,6.79,0,0,0,2.66.94,17.73,17.73,0,0,0,2.58.2,7,7,0,0,0,3.64-1,2.93,2.93,0,0,0,1.69-2.55,2.9,2.9,0,0,0-.64-2,1.86,1.86,0,0,0-1.41-.72,3,3,0,0,0-1.28.25,2.9,2.9,0,0,1-1.22.25A2.86,2.86,0,0,1,72,60.42a1.76,1.76,0,0,1-.83-.72,2.47,2.47,0,0,1-.3-1.28V33.73a3.39,3.39,0,0,0-.92-2.41,3.09,3.09,0,0,0-2.36-1A3.26,3.26,0,0,0,65.15,31.32Zm-5.74,6.82a2.88,2.88,0,0,0-.89,2.14,3,3,0,0,0,3.11,3.11H74.78A3.06,3.06,0,0,0,77,42.53a2.85,2.85,0,0,0,.89-2.14A3,3,0,0,0,77,38.17a3,3,0,0,0-2.21-.89H61.63A3.07,3.07,0,0,0,59.41,38.14ZM50.7,57.48a3,3,0,0,0,2.13-.78,2.55,2.55,0,0,0,.86-2,2.94,2.94,0,0,0-3-3H24.24a3.11,3.11,0,0,0-2.14.77,2.59,2.59,0,0,0-.86,2,2.94,2.94,0,0,0,3,3Zm-5.63,8.26A2.77,2.77,0,0,0,46,64l5.61-32.73A3.2,3.2,0,0,0,51,28.66a2.7,2.7,0,0,0-2.27-1.08,2.91,2.91,0,0,0-1.89.63A2.68,2.68,0,0,0,45.93,30L40.32,62.69a3.21,3.21,0,0,0,.56,2.64,2.77,2.77,0,0,0,2.33,1.08A2.67,2.67,0,0,0,45.07,65.74ZM52.7,42.05a3,3,0,0,0,2.13-.77,2.58,2.58,0,0,0,.86-2,2.9,2.9,0,0,0-.86-2.13,2.86,2.86,0,0,0-2.13-.86H26.29a3.08,3.08,0,0,0-2.14.77,2.59,2.59,0,0,0-.86,2,2.92,2.92,0,0,0,3,3ZM30.06,65.74A2.71,2.71,0,0,0,31,64l5.61-32.73a3.2,3.2,0,0,0-.56-2.63,2.77,2.77,0,0,0-2.33-1.08,2.82,2.82,0,0,0-1.83.63A2.68,2.68,0,0,0,31,30l-5.6,32.73a3.41,3.41,0,0,0,.58,2.64,2.63,2.63,0,0,0,2.25,1.08A2.78,2.78,0,0,0,30.06,65.74Z" transform="translate(0 0)"/></svg>