<svg id="Warstwa_1" data-name="Warstwa 1" xmlns="http://www.w3.org/2000/svg" viewBox="0 0 391.81 92.58"><defs><style>.cls-1{fill:#00674c;}.cls-2{fill:#ceef9d;}</style></defs><title>#_thinkpower_CElite_kolor</title><rect class="cls-1" width="391.81" height="92.58" rx="14.17"/><path class="cls-2" d="M350.57,65.44a3.32,3.32,0,0,0,.94-2.41V49.88a10.33,10.33,0,0,1,.53-3.47,7.65,7.65,0,0,1,1.39-2.47,5.71,5.71,0,0,1,1.88-1.47,4.92,4.92,0,0,1,2-.47,4.71,4.71,0,0,1,2,.39,4.56,4.56,0,0,0,1.91.39,3.11,3.11,0,0,0,2.06-.81,3.3,3.3,0,0,0,.94-2.63,2.81,2.81,0,0,0-1.14-2.22,4.24,4.24,0,0,0-2.8-.95,11.86,11.86,0,0,0-2.77.34,9.85,9.85,0,0,0-2.61,1,9.41,9.41,0,0,0-2.19,1.72,8.49,8.49,0,0,0-1.58,2.36l.38,3.72V40.11a3.32,3.32,0,0,0-.94-2.41,3.42,3.42,0,0,0-4.77,0,3.32,3.32,0,0,0-.94,2.41V63a3.32,3.32,0,0,0,.94,2.41,3.42,3.42,0,0,0,4.77,0Zm-18.8.61a12.92,12.92,0,0,0,4.05-2.14,3.47,3.47,0,0,0,1.55-2.72,2.8,2.8,0,0,0-2.83-2.77,4.31,4.31,0,0,0-1.89.5c-.4.22-.86.49-1.36.8a6.92,6.92,0,0,1-2,.81,13,13,0,0,1-3.27.33,8.5,8.5,0,0,1-7.4-4.24,9.64,9.64,0,0,1-1.25-5.08,13.91,13.91,0,0,1,.61-4.49,7.15,7.15,0,0,1,1.66-2.83,6,6,0,0,1,2.5-1.5,10.72,10.72,0,0,1,3.11-.44,7.27,7.27,0,0,1,3.24.75,7.36,7.36,0,0,1,2.55,2,5,5,0,0,1,1.14,2.89v1.49l1.22-1.11H313.07l1.66,5.55h21.2a3.58,3.58,0,0,0,2.33-.83,2.89,2.89,0,0,0,1.05-2.16,14.2,14.2,0,0,0-1.14-5.66,15.39,15.39,0,0,0-3.08-4.69,14.64,14.64,0,0,0-4.46-3.19,12.57,12.57,0,0,0-5.35-1.17,13.64,13.64,0,0,0-6.94,1.89,14.35,14.35,0,0,0-5.3,5.41A16.84,16.84,0,0,0,311,52a15.61,15.61,0,0,0,1.86,7.65A13.55,13.55,0,0,0,318.2,65a17.33,17.33,0,0,0,13.57,1.06ZM301,38.84l-6.82,18.3,1.66-.22-5.05-13.7a3.64,3.64,0,0,0-1-1.53,2.88,2.88,0,0,0-1.86-.52,3.1,3.1,0,0,0-3.05,2l-5.05,13.7,1.39.11-6.72-18.19a2.68,2.68,0,0,0-1.16-1.61,3.63,3.63,0,0,0-1.89-.5A3,3,0,0,0,269,37.78a3.64,3.64,0,0,0-.66,3.66l8.48,22.86A3,3,0,0,0,278.26,66a3.13,3.13,0,0,0,2.08.42,3.25,3.25,0,0,0,2.83-2.11l5.16-15.75-1.44-.06,5.49,15.81a3.25,3.25,0,0,0,2.83,2.11,3.16,3.16,0,0,0,2.11-.42,3.09,3.09,0,0,0,1.38-1.69l8.49-22.86a3.28,3.28,0,0,0,.17-.58,4.65,4.65,0,0,0,.05-.69,3.4,3.4,0,0,0-.94-2.47A3.32,3.32,0,0,0,301,38.84Zm-44.3,17.61a8.39,8.39,0,0,1-3.05,3.25,8.33,8.33,0,0,1-8.48,0,8.48,8.48,0,0,1-3.06-3.25A10,10,0,0,1,241,51.6a10.15,10.15,0,0,1,1.13-4.91,8.48,8.48,0,0,1,3.06-3.25,8.33,8.33,0,0,1,8.48,0,8.39,8.39,0,0,1,3.05,3.25,10,10,0,0,1,1.14,4.91A9.93,9.93,0,0,1,256.73,56.45Zm5.77-12.87a14.83,14.83,0,0,0-5.43-5.44,15.76,15.76,0,0,0-15.26,0,14.86,14.86,0,0,0-5.44,5.44,15.59,15.59,0,0,0-2,8,15.58,15.58,0,0,0,2,8A14.49,14.49,0,0,0,241.81,65a16,16,0,0,0,15.26,0,14.46,14.46,0,0,0,5.43-5.41,15.58,15.58,0,0,0,2-8A15.6,15.6,0,0,0,262.5,43.58Zm-42.27-.08a8.3,8.3,0,0,1,2.83,3.3,10.65,10.65,0,0,1,1,4.74,10.84,10.84,0,0,1-1,4.74,8.22,8.22,0,0,1-2.83,3.36A7.41,7.41,0,0,1,216,60.86a7.54,7.54,0,0,1-4.27-1.22,8.13,8.13,0,0,1-2.86-3.36,10.7,10.7,0,0,1-1-4.74,10.52,10.52,0,0,1,1-4.74,8.21,8.21,0,0,1,2.86-3.3A7.46,7.46,0,0,1,216,42.28,7.34,7.34,0,0,1,220.23,43.5Zm-7.1-6.66a12.15,12.15,0,0,0-3.08,1.69,11.5,11.5,0,0,0-2.11,2,3.19,3.19,0,0,0-.77,1.75l.94.5V40.11a3.32,3.32,0,0,0-.94-2.41,3.19,3.19,0,0,0-2.39-1,3.15,3.15,0,0,0-2.38,1,3.33,3.33,0,0,0-1,2.41v34a3.3,3.3,0,0,0,1,2.44,3.46,3.46,0,0,0,4.77,0,3.3,3.3,0,0,0,.94-2.41V59.53l-1.72.72a3.63,3.63,0,0,0,.8,1.92,10.8,10.8,0,0,0,2.28,2.24,13.35,13.35,0,0,0,3.41,1.83A11.89,11.89,0,0,0,217,67a12.14,12.14,0,0,0,6.8-2,14.07,14.07,0,0,0,4.82-5.43,17.06,17.06,0,0,0,1.81-8,16.9,16.9,0,0,0-1.81-8,14.05,14.05,0,0,0-4.88-5.41,12.65,12.65,0,0,0-7-2A10.36,10.36,0,0,0,213.13,36.84Zm-18.64,28.6a2.89,2.89,0,0,0,1.14-2.36,3.53,3.53,0,0,0-1.06-2.5l-10-10.87-5.05,4.66L189.8,65.24a3.17,3.17,0,0,0,2.44,1.11A3.6,3.6,0,0,0,194.49,65.44ZM189,37.78,176.27,50l.28,7.66,16.69-15.37a3.31,3.31,0,0,0,1.33-2.49,3.15,3.15,0,0,0-.94-2.06,2.9,2.9,0,0,0-2.22-1.05A3.36,3.36,0,0,0,189,37.78ZM176.16,65.44A3.32,3.32,0,0,0,177.1,63V28.74a3.3,3.3,0,0,0-.94-2.41,3.19,3.19,0,0,0-2.39-1,3.15,3.15,0,0,0-2.38,1,3.31,3.31,0,0,0-.95,2.41V63a3.33,3.33,0,0,0,.95,2.41,3.15,3.15,0,0,0,2.38,1A3.19,3.19,0,0,0,176.16,65.44Zm-27-28.68a11.18,11.18,0,0,0-2.89,1.52,14.07,14.07,0,0,0-2.22,2,10.66,10.66,0,0,0-1.44,2l.83.17V40.11a3.32,3.32,0,0,0-.94-2.41,3.42,3.42,0,0,0-4.77,0,3.33,3.33,0,0,0-1,2.41V63a3.33,3.33,0,0,0,1,2.41,3.42,3.42,0,0,0,4.77,0,3.32,3.32,0,0,0,.94-2.41V48.82a6.72,6.72,0,0,1,.81-3.3,6.07,6.07,0,0,1,2.33-2.36,7.32,7.32,0,0,1,3.74-.88,5.91,5.91,0,0,1,3.5.88,4.65,4.65,0,0,1,1.69,2.36,10.91,10.91,0,0,1,.47,3.3V63a3.32,3.32,0,0,0,.94,2.41,3.42,3.42,0,0,0,4.77,0,3.33,3.33,0,0,0,1-2.41V48.82a23.27,23.27,0,0,0-.81-6.35,8.77,8.77,0,0,0-2.94-4.58c-1.42-1.14-3.5-1.72-6.24-1.72A10.1,10.1,0,0,0,149.2,36.76Zm-19.86-4.22a2.52,2.52,0,0,0,.83-2.19V29.3a2.61,2.61,0,0,0-.78-2.17,4.58,4.58,0,0,0-2.72-.61,4.81,4.81,0,0,0-2.63.58,2.46,2.46,0,0,0-.86,2.2v1.05a2.61,2.61,0,0,0,.77,2.16,4.41,4.41,0,0,0,2.67.61A4.89,4.89,0,0,0,129.34,32.54Zm.66,7.57a3.32,3.32,0,0,0-.94-2.41,3.42,3.42,0,0,0-4.77,0,3.33,3.33,0,0,0-1,2.41V63a3.33,3.33,0,0,0,1,2.41,3.42,3.42,0,0,0,4.77,0A3.32,3.32,0,0,0,130,63Zm-26.57-3.35a11.47,11.47,0,0,0-2.83,1.52,12.48,12.48,0,0,0-2.17,2,12.15,12.15,0,0,0-1.38,2l.83.17V28.74a3.3,3.3,0,0,0-.94-2.41,3.19,3.19,0,0,0-2.39-1,3.15,3.15,0,0,0-2.38,1,3.31,3.31,0,0,0-1,2.41V63a3.33,3.33,0,0,0,1,2.41,3.15,3.15,0,0,0,2.38,1,3.19,3.19,0,0,0,2.39-1A3.32,3.32,0,0,0,97.88,63V48.82a7.16,7.16,0,0,1,.75-3.3,5.79,5.79,0,0,1,2.25-2.36,6.94,6.94,0,0,1,3.6-.88,5.43,5.43,0,0,1,3.33.88,4.57,4.57,0,0,1,1.61,2.36,11.61,11.61,0,0,1,.44,3.3V63a3.33,3.33,0,0,0,1,2.41,3.15,3.15,0,0,0,2.38,1,3.19,3.19,0,0,0,2.39-1,3.32,3.32,0,0,0,.94-2.41V48.82a24.11,24.11,0,0,0-.78-6.35,8.75,8.75,0,0,0-2.85-4.58,11,11,0,0,0-9.46-1.13Zm-31-5.44a3.26,3.26,0,0,0-1,2.41v25A9.2,9.2,0,0,0,72.25,63a5.72,5.72,0,0,0,2.08,2.3,6.79,6.79,0,0,0,2.66.94,17.73,17.73,0,0,0,2.58.2,7,7,0,0,0,3.64-1,3,3,0,0,0,1.69-2.55,2.9,2.9,0,0,0-.64-2,1.86,1.86,0,0,0-1.41-.72,3,3,0,0,0-1.28.25,2.9,2.9,0,0,1-1.22.25,2.86,2.86,0,0,1-1.14-.22,1.76,1.76,0,0,1-.83-.72,2.47,2.47,0,0,1-.3-1.28V33.73a3.39,3.39,0,0,0-.92-2.41,3.09,3.09,0,0,0-2.36-1A3.26,3.26,0,0,0,72.39,31.32Zm-5.74,6.82a2.88,2.88,0,0,0-.89,2.14,3,3,0,0,0,3.11,3.11H82a3.07,3.07,0,0,0,2.22-.86,2.88,2.88,0,0,0,.89-2.14A3,3,0,0,0,82,37.28H68.87A3.07,3.07,0,0,0,66.65,38.14ZM57.94,57.48a3,3,0,0,0,2.13-.78,2.55,2.55,0,0,0,.86-2,2.94,2.94,0,0,0-3-3H31.48a3.09,3.09,0,0,0-2.14.77,2.59,2.59,0,0,0-.86,2,2.93,2.93,0,0,0,.86,2.14,2.9,2.9,0,0,0,2.14.86Zm-5.63,8.26A2.77,2.77,0,0,0,53.22,64l5.61-32.73a3.2,3.2,0,0,0-.56-2.63A2.7,2.7,0,0,0,56,27.58a2.91,2.91,0,0,0-1.89.63A2.68,2.68,0,0,0,53.17,30L47.56,62.69a3.21,3.21,0,0,0,.56,2.64,2.77,2.77,0,0,0,2.33,1.08A2.67,2.67,0,0,0,52.31,65.74Zm7.62-23.69a3,3,0,0,0,2.14-.77,2.58,2.58,0,0,0,.86-2,2.9,2.9,0,0,0-.86-2.13,2.86,2.86,0,0,0-2.14-.86H33.53a3.08,3.08,0,0,0-2.14.77,2.59,2.59,0,0,0-.86,2,2.92,2.92,0,0,0,3,3ZM37.3,65.74A2.71,2.71,0,0,0,38.24,64l5.61-32.73a3.2,3.2,0,0,0-.56-2.63A2.77,2.77,0,0,0,41,27.58a2.82,2.82,0,0,0-1.83.63A2.68,2.68,0,0,0,38.19,30l-5.6,32.73a3.41,3.41,0,0,0,.58,2.64,2.62,2.62,0,0,0,2.24,1.08A2.79,2.79,0,0,0,37.3,65.74Z" transform="translate(0 0)"/></svg>