<svg width="150" height="150" viewBox="0 0 150 150" fill="none" xmlns="http://www.w3.org/2000/svg">
<path fill-rule="evenodd" clip-rule="evenodd" d="M1.41692 7.09812C0 9.87898 0 13.5193 0 20.8V129.2C0 136.481 0 140.121 1.41692 142.902C2.66327 145.348 4.65202 147.337 7.09812 148.583C9.87898 150 13.5193 150 20.8 150H129.2C136.481 150 140.121 150 142.902 148.583C145.348 147.337 147.337 145.348 148.583 142.902C150 140.121 150 136.481 150 129.2V20.8C150 13.5193 150 9.87898 148.583 7.09812C147.337 4.65202 145.348 2.66327 142.902 1.41692C140.121 0 136.481 0 129.2 0H20.8C13.5193 0 9.87898 0 7.09812 1.41692C4.65202 2.66327 2.66327 4.65202 1.41692 7.09812ZM99 23V41H87.1237C85.9691 40.8333 83.6598 41.5 83.6598 45.5V56.5H99V74.5H83.6598V127H62.8763V74.5H51V56.5H62.8763V41C62.8763 35 64.1629 23 75.2474 23H99Z" fill="#414752"/>
</svg>
