<svg width="150" height="150" viewBox="0 0 150 150" fill="none" xmlns="http://www.w3.org/2000/svg">
<path d="M92.3998 75.4C92.3998 85.2307 84.4305 93.2 74.5998 93.2C64.7691 93.2 56.7998 85.2307 56.7998 75.4C56.7998 65.5693 64.7691 57.6 74.5998 57.6C84.4305 57.6 92.3998 65.5693 92.3998 75.4Z" fill="#414752"/>
<path fill-rule="evenodd" clip-rule="evenodd" d="M72.6 30H77.4C87.7285 30 94.5727 30.0117 99.8232 30.4407C104.899 30.8553 107.15 31.584 108.534 32.2889C112.485 34.3022 115.698 37.5148 117.711 41.4662C118.416 42.8496 119.145 45.1013 119.559 50.1768C119.988 55.4273 120 62.2715 120 72.6V77.4C120 87.7285 119.988 94.5727 119.559 99.8232C119.145 104.899 118.416 107.15 117.711 108.534C115.698 112.485 112.485 115.698 108.534 117.711C107.15 118.416 104.899 119.145 99.8232 119.559C94.5727 119.988 87.7285 120 77.4 120H72.6C62.2715 120 55.4273 119.988 50.1768 119.559C45.1013 119.145 42.8496 118.416 41.4662 117.711C37.5148 115.698 34.3022 112.485 32.2889 108.534C31.584 107.15 30.8553 104.899 30.4407 99.8232C30.0117 94.5727 30 87.7285 30 77.4V72.6C30 62.2715 30.0117 55.4273 30.4407 50.1768C30.8553 45.1013 31.584 42.8496 32.2889 41.4662C34.3022 37.5148 37.5148 34.3022 41.4662 32.2889C42.8496 31.584 45.1013 30.8553 50.1768 30.4407C55.4273 30.0117 62.2715 30 72.6 30ZM114.2 43C114.2 46.9764 110.976 50.2 107 50.2C103.023 50.2 99.7998 46.9764 99.7998 43C99.7998 39.0235 103.023 35.8 107 35.8C110.976 35.8 114.2 39.0235 114.2 43ZM105.4 75.4C105.4 92.4104 91.6102 106.2 74.5998 106.2C57.5894 106.2 43.7998 92.4104 43.7998 75.4C43.7998 58.3896 57.5894 44.6 74.5998 44.6C91.6102 44.6 105.4 58.3896 105.4 75.4Z" fill="#414752"/>
<path fill-rule="evenodd" clip-rule="evenodd" d="M1.41692 7.09812C0 9.87898 0 13.5193 0 20.8V129.2C0 136.481 0 140.121 1.41692 142.902C2.66327 145.348 4.65202 147.337 7.09812 148.583C9.87898 150 13.5193 150 20.8 150H129.2C136.481 150 140.121 150 142.902 148.583C145.348 147.337 147.337 145.348 148.583 142.902C150 140.121 150 136.481 150 129.2V20.8C150 13.5193 150 9.87898 148.583 7.09812C147.337 4.65202 145.348 2.66327 142.902 1.41692C140.121 0 136.481 0 129.2 0H20.8C13.5193 0 9.87898 0 7.09812 1.41692C4.65202 2.66327 2.66327 4.65202 1.41692 7.09812ZM15 72.6C15 52.4381 15 42.3572 18.9238 34.6563C22.3752 27.8825 27.8825 22.3752 34.6563 18.9238C42.3572 15 52.4381 15 72.6 15H77.4C97.5619 15 107.643 15 115.344 18.9238C122.117 22.3752 127.625 27.8825 131.076 34.6563C135 42.3572 135 52.4381 135 72.6V77.4C135 97.5619 135 107.643 131.076 115.344C127.625 122.117 122.117 127.625 115.344 131.076C107.643 135 97.5619 135 77.4 135H72.6C52.4381 135 42.3572 135 34.6563 131.076C27.8825 127.625 22.3752 122.117 18.9238 115.344C15 107.643 15 97.5619 15 77.4V72.6Z" fill="#414752"/>
</svg>
