<svg width="150" height="150" viewBox="0 0 150 150" fill="none" xmlns="http://www.w3.org/2000/svg">
<path fill-rule="evenodd" clip-rule="evenodd" d="M1.41692 7.09812C0 9.87898 0 13.5193 0 20.8V129.2C0 136.481 0 140.121 1.41692 142.902C2.66327 145.348 4.65202 147.337 7.09812 148.583C9.87898 150 13.5193 150 20.8 150H129.2C136.481 150 140.121 150 142.902 148.583C145.348 147.337 147.337 145.348 148.583 142.902C150 140.121 150 136.481 150 129.2V20.8C150 13.5193 150 9.87898 148.583 7.09812C147.337 4.65202 145.348 2.66327 142.902 1.41692C140.121 0 136.481 0 129.2 0H20.8C13.5193 0 9.87898 0 7.09812 1.41692C4.65202 2.66327 2.66327 4.65202 1.41692 7.09812ZM34.5 49C41.4036 49 47 43.4036 47 36.5C47 29.5964 41.4036 24 34.5 24C27.5964 24 22 29.5964 22 36.5C22 43.4036 27.5964 49 34.5 49ZM46 57V126H23V57H46ZM58 56.9997V126H80.5V84.4997C80.6667 80.833 83.3 73.4997 92.5 73.4997C101.7 73.4997 104 80.833 104 84.4997V126H127V84.4997C126.5 74.9997 123.5 58 104 55.9997C85.2981 54.0812 80.5 64.833 80.5 68.4997V56.9997H58Z" fill="#414752"/>
</svg>
