<svg width="150" height="150" viewBox="0 0 150 150" fill="none" xmlns="http://www.w3.org/2000/svg">
<path d="M68.6079 129.633C56.7099 128.255 45.969 123.081 37.6284 115.353C41.4445 112.89 46.3 110.077 51.556 107.599C52.8777 106.976 54.2165 106.378 55.5633 105.814C55.8777 106.473 56.1954 107.128 56.5155 107.781C60.4426 115.787 64.8414 123.506 68.6079 129.633Z" fill="#414752"/>
<path d="M61.0045 105.579C60.7487 105.058 60.4955 104.536 60.2449 104.014C64.4498 102.546 68.6276 101.513 72.5 101.189V126.415C68.8915 120.509 64.7281 113.17 61.0045 105.579Z" fill="#414752"/>
<path d="M77.5 101.151C82.0986 101.409 86.6133 102.354 90.887 103.718C89.2915 107.069 87.5683 110.323 85.8264 113.388C82.852 118.623 79.8749 123.222 77.5 126.696V101.151Z" fill="#414752"/>
<path d="M77.5 96.144C82.8816 96.4155 88.1016 97.5385 92.9582 99.1332C96.0509 91.8815 98.3487 84.3801 98.8136 77.5H77.5V96.144Z" fill="#414752"/>
<path d="M90.1737 115.859C92.0156 112.617 93.8783 109.101 95.6121 105.426C97.2797 106.098 98.8967 106.824 100.453 107.584C105.327 109.966 109.534 112.654 112.725 115.023C104.375 122.896 93.5615 128.186 81.5628 129.613C84.0078 126.04 87.0894 121.287 90.1737 115.859Z" fill="#414752"/>
<path d="M102.647 103.091C108.06 105.736 112.723 108.748 116.231 111.402C124.285 102.285 129.364 90.4779 129.944 77.5H103.823C103.365 85.1085 100.899 93.2123 97.6583 100.86C99.3858 101.561 101.052 102.312 102.647 103.091Z" fill="#414752"/>
<path d="M116.431 38.826C124.373 47.9138 129.369 59.6281 129.944 72.5H103.823C103.372 64.9989 100.968 57.0163 97.7951 49.4642C99.4738 48.7786 101.095 48.0471 102.647 47.2884C108.164 44.5932 112.901 41.5163 116.431 38.826Z" fill="#414752"/>
<path d="M93.0996 51.1999C96.1208 58.348 98.3558 65.7252 98.8136 72.5H77.5V54.2357C82.9339 53.9615 88.203 52.8193 93.0996 51.1999Z" fill="#414752"/>
<path d="M72.5 72.5H50.6918C50.8511 69.101 51.6847 65.169 53.0512 60.8966C54.1211 57.5513 55.4971 54.06 57.0728 50.5377C62.1882 52.4373 67.4876 53.8414 72.5 54.206V72.5Z" fill="#414752"/>
<path d="M58.131 99.4572C54.5653 91.4814 51.8425 83.7401 50.9615 77.5H72.5V96.1737C67.8324 96.5132 62.916 97.7541 58.131 99.4572Z" fill="#414752"/>
<path d="M53.4649 101.272C49.7551 92.9453 46.7891 84.5167 45.9188 77.5H20.0558C20.6431 90.6282 25.8328 102.559 34.0501 111.717C38.1668 109.008 43.5542 105.843 49.424 103.076C50.7422 102.455 52.0924 101.85 53.4649 101.272Z" fill="#414752"/>
<path d="M48.2888 59.3734C46.8294 63.9365 45.8486 68.4151 45.6874 72.5H20.0557C20.6375 59.4839 25.7392 47.6516 33.8368 38.5217C37.9799 41.2616 43.4523 44.4884 49.424 47.3035C50.4103 47.7684 51.4146 48.2242 52.4326 48.6662C50.8267 52.2694 49.407 55.8774 48.2888 59.3734Z" fill="#414752"/>
<path d="M51.556 42.7808C46.189 40.2508 41.2396 37.3708 37.3879 34.8707C45.6735 27.101 56.3575 21.8727 68.2114 20.4145C64.1624 26.5344 59.5178 34.2216 55.5066 42.1967C55.183 42.84 54.8633 43.4858 54.548 44.1334C53.5436 43.6992 52.545 43.247 51.556 42.7808Z" fill="#414752"/>
<path d="M59.9734 44.4433C63.9254 36.586 68.5205 28.9961 72.5 22.9942V49.1911C68.3081 48.8401 63.7583 47.6579 59.2038 45.9938C59.4571 45.4765 59.7138 44.9595 59.9734 44.4433Z" fill="#414752"/>
<path d="M91.0434 46.6115C86.7235 48.0023 82.1547 48.968 77.5 49.2286V23.3042C79.8749 26.7782 82.852 31.3765 85.8264 36.6115C87.6254 39.7779 89.4043 43.1447 91.0434 46.6115Z" fill="#414752"/>
<path d="M90.1737 34.1415C87.0893 28.7129 84.0076 23.9594 81.5625 20.3872C93.6684 21.8256 104.565 27.1944 112.95 35.1899C109.732 37.5989 105.443 40.3579 100.453 42.7959C98.9434 43.5332 97.3767 44.238 95.7621 44.8934C93.986 41.1029 92.0688 37.4771 90.1737 34.1415Z" fill="#414752"/>
<path fill-rule="evenodd" clip-rule="evenodd" d="M1.41692 7.09812C0 9.87898 0 13.5193 0 20.8V129.2C0 136.481 0 140.121 1.41692 142.902C2.66327 145.348 4.65202 147.337 7.09812 148.583C9.87898 150 13.5193 150 20.8 150H129.2C136.481 150 140.121 150 142.902 148.583C145.348 147.337 147.337 145.348 148.583 142.902C150 140.121 150 136.481 150 129.2V20.8C150 13.5193 150 9.87898 148.583 7.09812C147.337 4.65202 145.348 2.66327 142.902 1.41692C140.121 0 136.481 0 129.2 0H20.8C13.5193 0 9.87898 0 7.09812 1.41692C4.65202 2.66327 2.66327 4.65202 1.41692 7.09812ZM72.5 134.949C72.3182 134.941 72.1367 134.933 71.9554 134.924C57.0088 134.177 43.5028 127.961 33.3981 118.235C32.1912 117.074 31.0328 115.862 29.9262 114.604C21.1474 104.62 15.633 91.6962 15.0511 77.5C15.0172 76.6709 15 75.8375 15 75C15 74.1626 15.0172 73.3291 15.0511 72.5C15.6649 57.5251 21.7672 43.9659 31.4 33.7804C31.9787 33.1684 32.5702 32.5686 33.174 31.9815C43.2819 22.1521 56.8421 15.8544 71.8624 15.0806C72.0747 15.0697 72.2872 15.0599 72.5 15.0511C73.1964 15.0226 73.896 15.0059 74.5983 15.0013C74.7321 15.0004 74.866 15 75 15C75.8374 15 76.6709 15.0172 77.5 15.0511C77.5932 15.055 77.6864 15.059 77.7795 15.0632C92.9512 15.7551 106.654 22.0814 116.844 31.9988C117.441 32.5805 118.027 33.1744 118.6 33.7804C118.99 34.1932 119.375 34.6116 119.754 35.0354C119.93 35.2331 120.106 35.432 120.28 35.632C128.939 45.5828 134.372 58.4152 134.949 72.5C134.983 73.3291 135 74.1626 135 75C135 75.8375 134.983 76.6709 134.949 77.5C134.367 91.6846 128.862 104.599 120.095 114.579C118.994 115.833 117.842 117.04 116.641 118.197C106.473 128.002 92.851 134.25 77.7795 134.937C77.6864 134.941 77.5932 134.945 77.5 134.949C76.6709 134.983 75.8374 135 75 135C74.866 135 74.7321 135 74.5983 134.999C73.8959 134.994 73.1964 134.977 72.5 134.949Z" fill="#414752"/>
</svg>
