<svg width="150" height="150" viewBox="0 0 150 150" fill="none" xmlns="http://www.w3.org/2000/svg">
<path fill-rule="evenodd" clip-rule="evenodd" d="M1.41692 7.09812C0 9.87898 0 13.5193 0 20.8V129.2C0 136.481 0 140.121 1.41692 142.902C2.66327 145.348 4.65202 147.337 7.09812 148.583C9.87898 150 13.5193 150 20.8 150H129.2C136.481 150 140.121 150 142.902 148.583C145.348 147.337 147.337 145.348 148.583 142.902C150 140.121 150 136.481 150 129.2V20.8C150 13.5193 150 9.87898 148.583 7.09812C147.337 4.65202 145.348 2.66327 142.902 1.41692C140.121 0 136.481 0 129.2 0H20.8C13.5193 0 9.87898 0 7.09812 1.41692C4.65202 2.66327 2.66327 4.65202 1.41692 7.09812ZM8 57.4C8 46.759 8 41.4385 10.0627 37.3742C11.8772 33.7991 14.7723 30.8925 18.3334 29.0709C22.3817 27 27.6812 27 38.2804 27H112.72C123.319 27 128.618 27 132.667 29.0709C136.228 30.8925 139.123 33.7991 140.937 37.3742C143 41.4385 143 46.759 143 57.4V91.6C143 102.241 143 107.561 140.937 111.626C139.123 115.201 136.228 118.108 132.667 119.929C128.618 122 123.319 122 112.72 122H38.2804C27.6812 122 22.3817 122 18.3334 119.929C14.7723 118.108 11.8772 115.201 10.0627 111.626C8 107.561 8 102.241 8 91.6V57.4ZM60.9907 99.8333V49.1667L98.8411 75.1333L60.9907 99.8333Z" fill="#414752"/>
</svg>
