<svg width="75" height="75" viewBox="0 0 75 75" fill="none" xmlns="http://www.w3.org/2000/svg">
<g filter="url(#filter0_d)">
<path d="M27.486 37.367C25.3832 28.2839 33.4 27 37.3429 27L37.9997 27.0005C41.9429 27.0026 49.9597 28.2839 47.8568 37.367C48.295 37.5316 49.1714 37.9595 49.1714 38.3544V41.3163C48.9522 41.6454 48.3823 42.3036 47.8568 42.3036C47.3314 42.3036 46.7619 42.9618 46.5429 43.2909C45.8855 45.2655 43.2566 49.2146 37.9997 49.2146H37.3429C32.086 49.2146 29.4573 45.2655 28.8 43.2909C28.581 42.9618 28.0115 42.3036 27.486 42.3036C26.9605 42.3036 26.3907 41.6454 26.1714 41.3163V38.3544C26.1714 37.9595 27.0478 37.5316 27.486 37.367Z" fill="white"/>
<path d="M28.8 49.2146C28.8 55.9271 34.4952 59.9108 37.3429 61.0635H38.6571C41.5048 59.9108 47.2 55.9271 47.2 49.2146C51.8 50.0378 61 52.6715 61 56.6207V66H38.6571H37.3429H15V56.6207C15 52.6715 24.2 50.0378 28.8 49.2146Z" fill="white"/>
<path d="M36.0286 52.6715C35.5029 53.0665 37.1236 53.1652 37.9997 53.1652C38.8758 53.1652 40.4971 53.0665 39.9714 52.6715C39.9714 52.0133 39.84 50.697 39.3143 50.697H37.9997H36.6857C36.16 50.697 36.0286 52.0133 36.0286 52.6715Z" fill="white"/>
<path d="M36.6857 54.1525H37.9997H39.3143C39.7524 54.9752 40.6286 56.7194 40.6286 57.1144C40.6286 57.5093 38.8758 58.9244 37.9997 59.5826C37.1236 58.9244 35.3714 57.5093 35.3714 57.1144C35.3714 56.7194 36.2476 54.9752 36.6857 54.1525Z" fill="white"/>
<path d="M27.486 37.367C25.3832 28.2839 33.4 27 37.3429 27L37.9997 27.0005C41.9429 27.0026 49.9597 28.2839 47.8568 37.367C48.295 37.5316 49.1714 37.9595 49.1714 38.3544V41.3163C48.9522 41.6454 48.3823 42.3036 47.8568 42.3036C47.3314 42.3036 46.7619 42.9618 46.5429 43.2909C45.8855 45.2655 43.2566 49.2146 37.9997 49.2146H37.3429C32.086 49.2146 29.4573 45.2655 28.8 43.2909C28.581 42.9618 28.0115 42.3036 27.486 42.3036C26.9605 42.3036 26.3907 41.6454 26.1714 41.3163V38.3544C26.1714 37.9595 27.0478 37.5316 27.486 37.367Z" stroke="black" stroke-width="0.5"/>
<path d="M28.8 49.2146C28.8 55.9271 34.4952 59.9108 37.3429 61.0635H38.6571C41.5048 59.9108 47.2 55.9271 47.2 49.2146C51.8 50.0378 61 52.6715 61 56.6207V66H38.6571H37.3429H15V56.6207C15 52.6715 24.2 50.0378 28.8 49.2146Z" stroke="black" stroke-width="0.5"/>
<path d="M36.0286 52.6715C35.5029 53.0665 37.1236 53.1652 37.9997 53.1652C38.8758 53.1652 40.4971 53.0665 39.9714 52.6715C39.9714 52.0133 39.84 50.697 39.3143 50.697H37.9997H36.6857C36.16 50.697 36.0286 52.0133 36.0286 52.6715Z" stroke="black" stroke-width="0.5"/>
<path d="M36.6857 54.1525H37.9997H39.3143C39.7524 54.9752 40.6286 56.7194 40.6286 57.1144C40.6286 57.5093 38.8758 58.9244 37.9997 59.5826C37.1236 58.9244 35.3714 57.5093 35.3714 57.1144C35.3714 56.7194 36.2476 54.9752 36.6857 54.1525Z" stroke="black" stroke-width="0.5"/>
<path d="M41.2927 1C41.2927 1 40.535 7.57143 41.2927 12.0677C41.863 15.4516 50.0206 20.8804 54.7563 24.0319C56.313 25.0679 57.5 25.8578 57.9262 26.2481C59.3366 27.5399 58.7709 29.4348 58.0755 30.5249C57.984 30.6683 57.9382 30.8716 58.2565 30.9048C59.3235 31.0163 62.2621 29.2575 63.8004 26.3339C64.2068 25.5616 67.0574 25.4181 67.4328 26.1938C70.3882 32.3009 72.2049 41.4448 64.7308 47C60.7305 45.6277 59.0445 42.9103 49.8451 42.1324C50.9138 41.4046 51.5749 40.6341 51.8761 40.0831C52.1281 39.8525 52.7833 39.3913 53.3879 39.3913C53.9924 39.3913 54.6481 38.9302 54.9003 38.6996V36.6244C54.9003 36.3477 53.892 36.048 53.3879 35.9326C55.8073 29.5687 45.0715 23.2875 40.5348 23.286L33.7305 23.2857C29.1941 23.2857 18.4583 29.5687 20.8777 35.9326C20.3736 36.048 19.3653 36.3477 19.3653 36.6244V38.6996C19.6175 38.9302 20.2731 39.3913 20.8777 39.3913C21.4823 39.3913 22.1375 39.8525 22.3895 40.0831C22.7055 40.661 23.4172 41.4804 24.5799 42.2387C17.6565 42.9564 16.9949 45.1243 13.1861 46.206C12.114 46.5105 11.1519 46.7838 10.2925 47C0.614819 42.0195 7.2682 29.7068 9.5364 27.6316C10.5168 26.7346 10.1751 25.0975 9.8485 23.5324C9.69069 22.7763 9.5364 22.0369 9.5364 21.406C9.5364 19.4692 6.51213 17.6015 5 16.9098C9.23397 16.6331 17.8531 23.02 21.6335 26.2481C22.8432 25.9714 22.1375 24.0576 21.6335 23.1353L20.1213 20.3684L26.1698 22.4436C25.1618 20.599 23.5992 15.9414 25.4138 12.0677C27.2283 8.19398 36.7558 3.07519 41.2927 1Z" fill="#00674C" stroke="black" stroke-width="0.5"/>
</g>
<defs>
<filter id="filter0_d" x="0.896484" y="0.588379" width="73.354" height="73.6616" filterUnits="userSpaceOnUse" color-interpolation-filters="sRGB">
<feFlood flood-opacity="0" result="BackgroundImageFix"/>
<feColorMatrix in="SourceAlpha" type="matrix" values="0 0 0 0 0 0 0 0 0 0 0 0 0 0 0 0 0 0 127 0"/>
<feOffset dy="4"/>
<feGaussianBlur stdDeviation="2"/>
<feColorMatrix type="matrix" values="0 0 0 0 0 0 0 0 0 0 0 0 0 0 0 0 0 0 0.25 0"/>
<feBlend mode="normal" in2="BackgroundImageFix" result="effect1_dropShadow"/>
<feBlend mode="normal" in="SourceGraphic" in2="effect1_dropShadow" result="shape"/>
</filter>
</defs>
</svg>
