<svg width="75" height="75" viewBox="0 0 75 75" fill="none" xmlns="http://www.w3.org/2000/svg">
<g filter="url(#filter0_d)">
<path d="M16.637 37.2583C14.6772 28.1408 22.1489 26.8521 25.8237 26.8521L26.4358 26.8525C30.1109 26.8547 37.5826 28.1408 35.6227 37.2583C36.0311 37.4235 36.8479 37.8531 36.8479 38.2495V41.2226C36.6436 41.5529 36.1125 42.2136 35.6227 42.2136C35.133 42.2136 34.6023 42.8743 34.3981 43.2046C33.7855 45.1867 31.3353 49.1508 26.4358 49.1508H25.8237C20.9242 49.1508 18.4743 45.1867 17.8617 43.2046C17.6575 42.8743 17.1268 42.2136 16.637 42.2136C16.1473 42.2136 15.6162 41.5529 15.4118 41.2226V38.2495C15.4118 37.8531 16.2286 37.4235 16.637 37.2583Z" fill="white"/>
<path d="M17.8617 49.1508C17.8617 55.8887 23.1697 59.8875 25.8237 61.0446H27.0486C29.7026 59.8875 35.0106 55.8887 35.0106 49.1508C39.2978 49.9772 47.8722 52.6208 47.8722 56.585V65.9998H27.0486H25.8237H5V56.585C5 52.6208 13.5744 49.9772 17.8617 49.1508Z" fill="white"/>
<path d="M24.5987 52.6208C24.1088 53.0173 25.6193 53.1164 26.4358 53.1164C27.2524 53.1164 28.7635 53.0173 28.2735 52.6208C28.2735 51.9601 28.151 50.6388 27.661 50.6388H26.4358H25.2112C24.7212 50.6388 24.5987 51.9601 24.5987 52.6208Z" fill="white"/>
<path d="M25.2112 54.1074H26.4358H27.661C28.0693 54.9332 28.886 56.6841 28.886 57.0805C28.886 57.4769 27.2524 58.8974 26.4358 59.5581C25.6193 58.8974 23.9863 57.4769 23.9863 57.0805C23.9863 56.6841 24.8029 54.9332 25.2112 54.1074Z" fill="white"/>
<path d="M16.637 37.2583C14.6772 28.1408 22.1489 26.8521 25.8237 26.8521L26.4358 26.8525C30.1109 26.8547 37.5826 28.1408 35.6227 37.2583C36.0311 37.4235 36.8479 37.8531 36.8479 38.2495V41.2226C36.6436 41.5529 36.1125 42.2136 35.6227 42.2136C35.133 42.2136 34.6023 42.8743 34.3981 43.2046C33.7855 45.1867 31.3353 49.1508 26.4358 49.1508H25.8237C20.9242 49.1508 18.4743 45.1867 17.8617 43.2046C17.6575 42.8743 17.1268 42.2136 16.637 42.2136C16.1473 42.2136 15.6162 41.5529 15.4118 41.2226V38.2495C15.4118 37.8531 16.2286 37.4235 16.637 37.2583Z" stroke="black" stroke-width="0.5"/>
<path d="M17.8617 49.1508C17.8617 55.8887 23.1697 59.8875 25.8237 61.0446H27.0486C29.7026 59.8875 35.0106 55.8887 35.0106 49.1508C39.2978 49.9772 47.8722 52.6208 47.8722 56.585V65.9998H27.0486H25.8237H5V56.585C5 52.6208 13.5744 49.9772 17.8617 49.1508Z" stroke="black" stroke-width="0.5"/>
<path d="M24.5987 52.6208C24.1088 53.0173 25.6193 53.1164 26.4358 53.1164C27.2524 53.1164 28.7635 53.0173 28.2735 52.6208C28.2735 51.9601 28.151 50.6388 27.661 50.6388H26.4358H25.2112C24.7212 50.6388 24.5987 51.9601 24.5987 52.6208Z" stroke="black" stroke-width="0.5"/>
<path d="M25.2112 54.1074H26.4358H27.661C28.0693 54.9332 28.886 56.6841 28.886 57.0805C28.886 57.4769 27.2524 58.8974 26.4358 59.5581C25.6193 58.8974 23.9863 57.4769 23.9863 57.0805C23.9863 56.6841 24.8029 54.9332 25.2112 54.1074Z" stroke="black" stroke-width="0.5"/>
<path d="M58.9363 10.233C58.9363 15.3322 51.9705 19.4659 43.3778 19.4659C40.811 19.4659 38.5374 19.4659 36.4629 19.3355C36.4629 20.2045 33.697 22.4205 33.3512 22.4205C33.0055 22.4205 33.0055 22.4205 32.6597 22.4205C31.9683 22.4205 32.314 18.7273 32.314 17.9886C29.7382 16.3412 27.8193 12.6576 27.8193 10.233C27.8193 5.13373 34.7851 1 43.3778 1C51.9705 1 58.9363 5.13373 58.9363 10.233Z" fill="#00674C" stroke="black" stroke-width="0.5"/>
<path d="M42.9146 21.1285C42.5433 21.7306 42.3408 22.38 42.3408 23.0571C42.3408 26.1902 46.6751 28.73 52.0216 28.73C53.6187 28.73 55.0335 28.73 56.3242 28.6499C56.3242 29.1838 58.0453 30.5453 58.2604 30.5453H58.6907C59.04 30.5453 58.9639 29.0495 58.9229 28.2439C58.9134 28.0573 58.9058 27.9077 58.9058 27.8223C60.5085 26.8101 61.7025 24.5468 61.7025 23.0571C61.7025 20.9042 59.6559 19.0314 56.6406 18.0703C54.228 19.9393 50.4285 21.1446 46.1546 21.1446C45.0097 21.1446 43.9336 21.1446 42.9146 21.1285Z" fill="#00674C" stroke="black" stroke-width="0.5"/>
<path d="M50.8287 63.0453H69.9997V55.7622C69.9997 52.6956 64.8124 50.6505 62.2187 50.0112C62.2187 55.2236 59.0076 58.3169 57.402 59.2121H56.6609C55.0553 58.3169 51.8441 55.2236 51.8441 50.0112C50.6001 50.3178 48.7595 50.9478 47.1807 51.8589C49.2307 53.0961 50.8287 54.6895 50.8287 56.5847V63.0453Z" fill="white"/>
<path d="M56.6609 32.7612C54.4378 32.7612 49.9176 33.7582 51.1033 40.8114C50.8562 40.9392 50.362 41.2714 50.362 41.5781V43.878C50.4857 44.1336 50.807 44.6447 51.1033 44.6447C51.3995 44.6447 51.7206 45.1558 51.8441 45.4113C52.2148 46.9446 53.6969 50.0112 56.6609 50.0112H57.0313C59.9953 50.0112 61.4776 46.9446 61.8482 45.4113C61.9717 45.1558 62.2928 44.6447 62.5891 44.6447C62.8854 44.6447 63.2067 44.1336 63.3303 43.878V41.5781C63.3303 41.2714 62.8362 40.9392 62.5891 40.8114C63.7748 33.7582 59.2546 32.7633 57.0313 32.7616L56.6609 32.7612Z" fill="white"/>
<path d="M55.9199 52.6956C55.6235 53.0022 56.5373 53.0789 57.0313 53.0789C57.5252 53.0789 58.4394 53.0022 58.143 52.6956C58.143 52.1845 58.0689 51.1623 57.7725 51.1623H56.2904C55.994 51.1623 55.9199 52.1845 55.9199 52.6956Z" fill="white"/>
<path d="M56.2904 53.8455C56.0434 54.4844 55.5494 55.8388 55.5494 56.1455C55.5494 56.4521 56.5373 57.551 57.0313 58.0621C57.5252 57.551 58.5135 56.4521 58.5135 56.1455C58.5135 55.8388 58.0195 54.4844 57.7725 53.8455H56.2904Z" fill="white"/>
<path d="M50.8287 63.0453H69.9997V55.7622C69.9997 52.6956 64.8124 50.6505 62.2187 50.0112C62.2187 55.2236 59.0076 58.3169 57.402 59.2121H56.6609C55.0553 58.3169 51.8441 55.2236 51.8441 50.0112C50.6001 50.3178 48.7595 50.9478 47.1807 51.8589C49.2307 53.0961 50.8287 54.6895 50.8287 56.5847V63.0453Z" stroke="black" stroke-width="0.5"/>
<path d="M56.6609 32.7612C54.4378 32.7612 49.9176 33.7582 51.1033 40.8114C50.8562 40.9392 50.362 41.2714 50.362 41.5781V43.878C50.4857 44.1336 50.807 44.6447 51.1033 44.6447C51.3995 44.6447 51.7206 45.1558 51.8441 45.4113C52.2148 46.9446 53.6969 50.0112 56.6609 50.0112H57.0313C59.9953 50.0112 61.4776 46.9446 61.8482 45.4113C61.9717 45.1558 62.2928 44.6447 62.5891 44.6447C62.8854 44.6447 63.2067 44.1336 63.3303 43.878V41.5781C63.3303 41.2714 62.8362 40.9392 62.5891 40.8114C63.7748 33.7582 59.2546 32.7633 57.0313 32.7616L56.6609 32.7612Z" stroke="black" stroke-width="0.5"/>
<path d="M55.9199 52.6956C55.6235 53.0022 56.5373 53.0789 57.0313 53.0789C57.5252 53.0789 58.4394 53.0022 58.143 52.6956C58.143 52.1845 58.0689 51.1623 57.7725 51.1623H56.2904C55.994 51.1623 55.9199 52.1845 55.9199 52.6956Z" stroke="black" stroke-width="0.5"/>
<path d="M56.2904 53.8455C56.0434 54.4844 55.5494 55.8388 55.5494 56.1455C55.5494 56.4521 56.5373 57.551 57.0313 58.0621C57.5252 57.551 58.5135 56.4521 58.5135 56.1455C58.5135 55.8388 58.0195 54.4844 57.7725 53.8455H56.2904Z" stroke="black" stroke-width="0.5"/>
</g>
<defs>
<filter id="filter0_d" x="0.75" y="0.75" width="73.4993" height="73.4998" filterUnits="userSpaceOnUse" color-interpolation-filters="sRGB">
<feFlood flood-opacity="0" result="BackgroundImageFix"/>
<feColorMatrix in="SourceAlpha" type="matrix" values="0 0 0 0 0 0 0 0 0 0 0 0 0 0 0 0 0 0 127 0"/>
<feOffset dy="4"/>
<feGaussianBlur stdDeviation="2"/>
<feColorMatrix type="matrix" values="0 0 0 0 0 0 0 0 0 0 0 0 0 0 0 0 0 0 0.25 0"/>
<feBlend mode="normal" in2="BackgroundImageFix" result="effect1_dropShadow"/>
<feBlend mode="normal" in="SourceGraphic" in2="effect1_dropShadow" result="shape"/>
</filter>
</defs>
</svg>
