<svg width="75" height="75" viewBox="0 0 75 75" fill="none" xmlns="http://www.w3.org/2000/svg">
<g filter="url(#filter0_d)">
<path d="M29.0748 22.2015H18.5101C17.9578 22.2015 17.4432 21.75 17.1378 21.2898C16.8283 20.8235 16.3582 20.2797 15.8453 19.6864C14.5726 18.2141 13.0362 16.4369 13.0362 14.781C13.3152 13.9885 14.8451 14.3068 16.9246 14.7394C18.4797 15.063 20.3421 15.4505 22.2186 15.4852C22.3951 15.4884 22.5666 15.4412 22.7211 15.3557C24.6074 14.3123 28.92 12.4868 33.292 12.3198C33.7068 12.304 34.1399 12.4168 34.3878 12.7497C35.8568 14.7223 32.8758 18.8904 29.7577 21.9253C29.5741 22.1039 29.3309 22.2015 29.0748 22.2015Z" fill="white"/>
<path d="M19.5033 25.0283V23.6149H28.4578V25.0283H19.5033Z" fill="white"/>
<path d="M21.7773 42.9199C21.4306 42.6532 21.2573 42.2999 21.2573 41.8599C21.2573 41.3932 21.4239 40.9999 21.7573 40.6799C22.0906 40.3599 22.5973 40.1465 23.2773 40.0399V43.5999C22.6239 43.4132 22.1239 43.1865 21.7773 42.9199Z" fill="white"/>
<path d="M26.4773 49.3599C26.1439 49.6665 25.6239 49.8732 24.9173 49.9799V46.4399C25.5839 46.6265 26.0973 46.8599 26.4573 47.1399C26.8173 47.4065 26.9973 47.7665 26.9973 48.2199C26.9973 48.6732 26.8239 49.0532 26.4773 49.3599Z" fill="white"/>
<path fill-rule="evenodd" clip-rule="evenodd" d="M20.3388 26.7951H27.6229C28.4292 26.7951 29.1515 27.1361 29.4703 27.6623C32.3328 32.3868 38.0185 40.3992 40.7923 44.3081C41.7405 45.6443 42.3489 46.5016 42.3871 46.5831C43.3821 48.7032 42.8848 52.2368 42.3871 53.6502C41.3924 55.7704 37.9099 61.0707 23.9808 61.0707C10.0517 61.0707 6.5692 55.7704 5.57452 53.6502C5.0768 52.2368 4.57955 48.7032 5.57452 46.5831C5.61277 46.5016 6.22061 45.645 7.16885 44.3087C9.91963 40.4323 15.5347 32.5195 18.4196 27.7805L18.4914 27.6623C18.6164 27.4559 18.8034 27.2781 19.0332 27.1381C19.361 26.9184 19.7502 26.7951 20.1585 26.7951H20.3388ZM28.3573 50.7999C29.1573 50.0399 29.5573 49.1199 29.5573 48.0399C29.5573 47.1732 29.3373 46.4799 28.8973 45.9599C28.4706 45.4265 27.9373 45.0265 27.2973 44.7599C26.6706 44.4932 25.8773 44.2465 24.9173 44.0199V39.9799C26.0639 40.1132 27.1439 40.4732 28.1573 41.0599L28.9773 39.0399C28.4439 38.6932 27.8173 38.4132 27.0973 38.1999C26.3906 37.9865 25.6639 37.8599 24.9173 37.8199V35.5999H23.2773V37.8599C21.7839 38.0065 20.6439 38.4599 19.8573 39.2199C19.0706 39.9799 18.6773 40.8999 18.6773 41.9799C18.6773 42.8465 18.8906 43.5465 19.3173 44.0799C19.7439 44.5999 20.2706 44.9999 20.8973 45.2799C21.5373 45.5465 22.3306 45.7932 23.2773 46.0199V50.0199C22.5173 49.9532 21.7839 49.7865 21.0773 49.5199C20.3706 49.2399 19.7706 48.8999 19.2773 48.4999L18.3773 50.5199C18.8973 50.9732 19.5973 51.3465 20.4773 51.6399C21.3573 51.9332 22.2906 52.1132 23.2773 52.1799V54.3999H24.9173V52.1599C26.4239 51.9999 27.5706 51.5465 28.3573 50.7999Z" fill="white"/>
<path d="M20.3388 26.7951H20.1585C19.7502 26.7951 19.361 26.9184 19.0332 27.1381M20.3388 26.7951C19.8486 26.7951 19.3895 26.9211 19.0332 27.1381M20.3388 26.7951H27.6229C28.4292 26.7951 29.1515 27.1361 29.4703 27.6623C32.3328 32.3868 38.0185 40.3992 40.7923 44.3081C41.7405 45.6443 42.3489 46.5016 42.3871 46.5831C43.3821 48.7032 42.8848 52.2368 42.3871 53.6502C41.3924 55.7704 37.9099 61.0707 23.9808 61.0707C10.0517 61.0707 6.5692 55.7704 5.57452 53.6502C5.0768 52.2368 4.57955 48.7032 5.57452 46.5831C5.61277 46.5016 6.22061 45.645 7.16885 44.3087C9.91963 40.4323 15.5347 32.5195 18.4196 27.7805M18.4196 27.7805L18.4914 27.6623C18.6164 27.4559 18.8034 27.2781 19.0332 27.1381M18.4196 27.7805C18.5781 27.52 18.7885 27.3022 19.0332 27.1381M18.5101 22.2015H29.0748C29.3309 22.2015 29.5741 22.1039 29.7577 21.9253C32.8758 18.8904 35.8568 14.7223 34.3878 12.7497C34.1399 12.4168 33.7068 12.304 33.292 12.3198C28.92 12.4868 24.6074 14.3123 22.7211 15.3557C22.5666 15.4412 22.3951 15.4884 22.2186 15.4852C20.3421 15.4505 18.4797 15.063 16.9246 14.7394C14.8451 14.3068 13.3152 13.9885 13.0362 14.781C13.0362 16.4369 14.5726 18.2141 15.8453 19.6864C16.3582 20.2797 16.8283 20.8235 17.1378 21.2898C17.4432 21.75 17.9578 22.2015 18.5101 22.2015ZM19.5033 23.6149V25.0283H28.4578V23.6149H19.5033ZM29.5573 48.0399C29.5573 49.1199 29.1573 50.0399 28.3573 50.7999C27.5706 51.5465 26.4239 51.9999 24.9173 52.1599V54.3999H23.2773V52.1799C22.2906 52.1132 21.3573 51.9332 20.4773 51.6399C19.5973 51.3465 18.8973 50.9732 18.3773 50.5199L19.2773 48.4999C19.7706 48.8999 20.3706 49.2399 21.0773 49.5199C21.7839 49.7865 22.5173 49.9532 23.2773 50.0199V46.0199C22.3306 45.7932 21.5373 45.5465 20.8973 45.2799C20.2706 44.9999 19.7439 44.5999 19.3173 44.0799C18.8906 43.5465 18.6773 42.8465 18.6773 41.9799C18.6773 40.8999 19.0706 39.9799 19.8573 39.2199C20.6439 38.4599 21.7839 38.0065 23.2773 37.8599V35.5999H24.9173V37.8199C25.6639 37.8599 26.3906 37.9865 27.0973 38.1999C27.8173 38.4132 28.4439 38.6932 28.9773 39.0399L28.1573 41.0599C27.1439 40.4732 26.0639 40.1132 24.9173 39.9799V44.0199C25.8773 44.2465 26.6706 44.4932 27.2973 44.7599C27.9373 45.0265 28.4706 45.4265 28.8973 45.9599C29.3373 46.4799 29.5573 47.1732 29.5573 48.0399ZM21.2573 41.8599C21.2573 42.2999 21.4306 42.6532 21.7773 42.9199C22.1239 43.1865 22.6239 43.4132 23.2773 43.5999V40.0399C22.5973 40.1465 22.0906 40.3599 21.7573 40.6799C21.4239 40.9999 21.2573 41.3932 21.2573 41.8599ZM24.9173 49.9799C25.6239 49.8732 26.1439 49.6665 26.4773 49.3599C26.8239 49.0532 26.9973 48.6732 26.9973 48.2199C26.9973 47.7665 26.8173 47.4065 26.4573 47.1399C26.0973 46.8599 25.5839 46.6265 24.9173 46.4399V49.9799Z" stroke="black" stroke-width="0.5"/>
<path d="M26.2233 62.1307C24.5991 61.8712 23.1305 61.4986 21.8028 61.0268C18.6297 60.8932 16.0687 60.4634 13.9999 59.8654C16.5985 62.7941 20.4765 64.9084 26.2233 65.6643C39.1575 67.3657 55.0764 62.4841 58.5587 53.6502C62.041 44.8162 60.5486 18.6678 60.5486 18.6678H70.0005L55.5739 1L41.6448 18.6678H51.5942V48.7799C51.5942 51.2998 51.0416 53.853 49.0005 55.9142C45.5973 59.3509 38.5577 63.9752 26.2233 62.1307Z" fill="#00674C"/>
<path d="M9.35392 32.6157C9.3366 35.2734 9.31807 38.1165 9.50355 40.9537C9.31177 41.2259 9.12391 41.4922 8.94068 41.7516C8.93437 39.2672 9.04879 36.8034 9.15681 34.4776C9.28164 31.7898 9.3979 29.2863 9.30938 27.1484C9.37865 28.8213 9.36661 30.6688 9.35392 32.6157Z" fill="#00674C"/>
<path d="M26.2233 62.1307C24.5991 61.8712 23.1305 61.4986 21.8028 61.0268C18.6297 60.8932 16.0687 60.4634 13.9999 59.8654C16.5985 62.7941 20.4765 64.9084 26.2233 65.6643C39.1575 67.3657 55.0764 62.4841 58.5587 53.6502C62.041 44.8162 60.5486 18.6678 60.5486 18.6678H70.0005L55.5739 1L41.6448 18.6678H51.5942V48.7799C51.5942 51.2998 51.0416 53.853 49.0005 55.9142C45.5973 59.3509 38.5577 63.9752 26.2233 62.1307Z" stroke="black" stroke-width="0.5"/>
<path d="M9.35392 32.6157C9.3366 35.2734 9.31807 38.1165 9.50355 40.9537C9.31177 41.2259 9.12391 41.4922 8.94068 41.7516C8.93437 39.2672 9.04879 36.8034 9.15681 34.4776C9.28164 31.7898 9.3979 29.2863 9.30938 27.1484C9.37865 28.8213 9.36661 30.6688 9.35392 32.6157Z" stroke="black" stroke-width="0.5"/>
</g>
<defs>
<filter id="filter0_d" x="0.75" y="0.600586" width="73.7774" height="73.6495" filterUnits="userSpaceOnUse" color-interpolation-filters="sRGB">
<feFlood flood-opacity="0" result="BackgroundImageFix"/>
<feColorMatrix in="SourceAlpha" type="matrix" values="0 0 0 0 0 0 0 0 0 0 0 0 0 0 0 0 0 0 127 0"/>
<feOffset dy="4"/>
<feGaussianBlur stdDeviation="2"/>
<feColorMatrix type="matrix" values="0 0 0 0 0 0 0 0 0 0 0 0 0 0 0 0 0 0 0.25 0"/>
<feBlend mode="normal" in2="BackgroundImageFix" result="effect1_dropShadow"/>
<feBlend mode="normal" in="SourceGraphic" in2="effect1_dropShadow" result="shape"/>
</filter>
</defs>
</svg>
