<svg width="75" height="75" viewBox="0 0 75 75" fill="none" xmlns="http://www.w3.org/2000/svg">
<g filter="url(#filter0_d)">
<path d="M29.0934 59.6072H26.4766L33.6728 48.4604L41.5232 59.6072H38.9064V65.7565H29.0934V59.6072Z" fill="#00674C" stroke="black" stroke-width="0.5"/>
<path d="M43.2145 49.9126H40.9248L48.121 37.8369L55.3172 49.9126H53.0275V65.7039H43.2145V49.9126Z" fill="#00674C" stroke="black" stroke-width="0.5"/>
<path d="M57.57 37.8374H55.2803L62.4765 25.7617L69.9998 37.8374H67.383V65.7044H57.57V37.8374Z" fill="#00674C" stroke="black" stroke-width="0.5"/>
<path d="M25.516 13.9816H16.5556C16.0854 13.9816 15.6853 13.5611 15.5081 13.086C15.2562 12.4107 14.7931 11.5877 14.2799 10.6758C13.1909 8.74063 11.8763 6.40471 11.8763 4.22816C12.1149 3.18657 13.424 3.60492 15.2034 4.17357C16.5138 4.59235 18.0792 5.09264 19.66 5.15135C19.8564 5.15865 20.0448 5.08325 20.2004 4.95216C21.81 3.59542 25.3916 1.27838 29.0494 1.00384C29.4999 0.970025 29.9608 1.15889 30.165 1.59838C31.3757 4.20482 28.843 9.64024 26.1912 13.608C26.0332 13.8444 25.7842 13.9816 25.516 13.9816Z" fill="white"/>
<path d="M17.4099 17.6972V15.8394H25.0718V17.6972H17.4099Z" fill="white"/>
<path d="M17.2601 41.0516C16.9165 41.4356 16.4246 41.6276 15.7844 41.6276C15.1754 41.6276 14.6835 41.4356 14.3087 41.0516C13.9495 40.6556 13.7699 40.1156 13.7699 39.4316C13.7699 38.7476 13.9495 38.2136 14.3087 37.8296C14.6835 37.4336 15.1754 37.2356 15.7844 37.2356C16.4246 37.2356 16.9165 37.4276 17.2601 37.8116C17.6193 38.1956 17.7988 38.7356 17.7988 39.4316C17.7988 40.1276 17.6193 40.6676 17.2601 41.0516Z" fill="white"/>
<path d="M28.0116 46.9916C27.6525 47.3756 27.1606 47.5676 26.5359 47.5676C25.9113 47.5676 25.4194 47.3756 25.0602 46.9916C24.7011 46.6076 24.5215 46.0676 24.5215 45.3716C24.5215 44.6756 24.7011 44.1356 25.0602 43.7516C25.4194 43.3676 25.9113 43.1756 26.5359 43.1756C27.1606 43.1756 27.6525 43.3736 28.0116 43.7696C28.3708 44.1536 28.5504 44.6876 28.5504 45.3716C28.5504 46.0556 28.3708 46.5956 28.0116 46.9916Z" fill="white"/>
<path fill-rule="evenodd" clip-rule="evenodd" d="M24.3575 20.0195H18.1248C17.4348 20.0195 16.8168 20.4677 16.544 21.1592C14.0946 27.3693 9.22919 37.9015 6.85577 43.0393C6.04442 44.7957 5.52432 45.9215 5.49159 46.0286C4.64024 48.8153 5.06571 53.4598 5.49159 55.3176L5.54927 55.5074C6.44034 58.4455 8.73153 66 20.3898 66C22.9381 66 25.0778 65.6815 26.8754 65.1535V61.3555H22.8779L34.1743 44L35.4709 46.5C36.1193 47.4714 37.1066 46.4083 36.9906 46.0286C36.9579 45.9215 36.4379 44.7958 35.6269 43.0402L35.6262 43.0388C33.2528 37.901 28.3876 27.3692 25.9382 21.1592C25.6655 20.4677 25.0474 20.0195 24.3575 20.0195ZM12.9501 41.9336C13.6684 42.5696 14.6132 42.8876 15.7844 42.8876C16.9556 42.8876 17.9003 42.5756 18.6187 41.9516C19.3526 41.3156 19.7196 40.4756 19.7196 39.4316C19.7196 38.3876 19.3526 37.5536 18.6187 36.9296C17.9003 36.2936 16.9556 35.9756 15.7844 35.9756C14.6132 35.9756 13.6684 36.2936 12.9501 36.9296C12.2318 37.5656 11.8726 38.3996 11.8726 39.4316C11.8726 40.4636 12.2318 41.2976 12.9501 41.9336ZM27.9179 36.1016H25.6224L14.4258 48.7016H16.7213L27.9179 36.1016ZM23.7016 47.8736C24.42 48.5096 25.3647 48.8276 26.5359 48.8276C27.7071 48.8276 28.6519 48.5096 29.3702 47.8736C30.1042 47.2376 30.4711 46.4036 30.4711 45.3716C30.4711 44.3396 30.1042 43.5056 29.3702 42.8696C28.6519 42.2336 27.7071 41.9156 26.5359 41.9156C25.3647 41.9156 24.42 42.2336 23.7016 42.8696C22.9833 43.5056 22.6241 44.3396 22.6241 45.3716C22.6241 46.4036 22.9833 47.2376 23.7016 47.8736Z" fill="white"/>
<path d="M25.516 13.9816H16.5556C16.0854 13.9816 15.6853 13.5611 15.5081 13.086C15.2562 12.4107 14.7931 11.5877 14.2799 10.6758C13.1909 8.74063 11.8763 6.40471 11.8763 4.22816C12.1149 3.18657 13.424 3.60492 15.2034 4.17357C16.5138 4.59235 18.0792 5.09264 19.66 5.15135C19.8564 5.15865 20.0448 5.08325 20.2004 4.95216C21.81 3.59542 25.3916 1.27838 29.0494 1.00384C29.4999 0.970025 29.9608 1.15889 30.165 1.59838C31.3757 4.20482 28.843 9.64024 26.1912 13.608C26.0332 13.8444 25.7842 13.9816 25.516 13.9816Z" stroke="black" stroke-width="0.5"/>
<path d="M17.4099 17.6972V15.8394H25.0718V17.6972H17.4099Z" stroke="black" stroke-width="0.5"/>
<path d="M17.2601 41.0516C16.9165 41.4356 16.4246 41.6276 15.7844 41.6276C15.1754 41.6276 14.6835 41.4356 14.3087 41.0516C13.9495 40.6556 13.7699 40.1156 13.7699 39.4316C13.7699 38.7476 13.9495 38.2136 14.3087 37.8296C14.6835 37.4336 15.1754 37.2356 15.7844 37.2356C16.4246 37.2356 16.9165 37.4276 17.2601 37.8116C17.6193 38.1956 17.7988 38.7356 17.7988 39.4316C17.7988 40.1276 17.6193 40.6676 17.2601 41.0516Z" stroke="black" stroke-width="0.5"/>
<path d="M28.0116 46.9916C27.6525 47.3756 27.1606 47.5676 26.5359 47.5676C25.9113 47.5676 25.4194 47.3756 25.0602 46.9916C24.7011 46.6076 24.5215 46.0676 24.5215 45.3716C24.5215 44.6756 24.7011 44.1356 25.0602 43.7516C25.4194 43.3676 25.9113 43.1756 26.5359 43.1756C27.1606 43.1756 27.6525 43.3736 28.0116 43.7696C28.3708 44.1536 28.5504 44.6876 28.5504 45.3716C28.5504 46.0556 28.3708 46.5956 28.0116 46.9916Z" stroke="black" stroke-width="0.5"/>
<path fill-rule="evenodd" clip-rule="evenodd" d="M24.3575 20.0195H18.1248C17.4348 20.0195 16.8168 20.4677 16.544 21.1592C14.0946 27.3693 9.22919 37.9015 6.85577 43.0393C6.04442 44.7957 5.52432 45.9215 5.49159 46.0286C4.64024 48.8153 5.06571 53.4598 5.49159 55.3176L5.54927 55.5074C6.44034 58.4455 8.73153 66 20.3898 66C22.9381 66 25.0778 65.6815 26.8754 65.1535V61.3555H22.8779L34.1743 44L35.4709 46.5C36.1193 47.4714 37.1066 46.4083 36.9906 46.0286C36.9579 45.9215 36.4379 44.7958 35.6269 43.0402L35.6262 43.0388C33.2528 37.901 28.3876 27.3692 25.9382 21.1592C25.6655 20.4677 25.0474 20.0195 24.3575 20.0195ZM12.9501 41.9336C13.6684 42.5696 14.6132 42.8876 15.7844 42.8876C16.9556 42.8876 17.9003 42.5756 18.6187 41.9516C19.3526 41.3156 19.7196 40.4756 19.7196 39.4316C19.7196 38.3876 19.3526 37.5536 18.6187 36.9296C17.9003 36.2936 16.9556 35.9756 15.7844 35.9756C14.6132 35.9756 13.6684 36.2936 12.9501 36.9296C12.2318 37.5656 11.8726 38.3996 11.8726 39.4316C11.8726 40.4636 12.2318 41.2976 12.9501 41.9336ZM27.9179 36.1016H25.6224L14.4258 48.7016H16.7213L27.9179 36.1016ZM23.7016 47.8736C24.42 48.5096 25.3647 48.8276 26.5359 48.8276C27.7071 48.8276 28.6519 48.5096 29.3702 47.8736C30.1042 47.2376 30.4711 46.4036 30.4711 45.3716C30.4711 44.3396 30.1042 43.5056 29.3702 42.8696C28.6519 42.2336 27.7071 41.9156 26.5359 41.9156C25.3647 41.9156 24.42 42.2336 23.7016 42.8696C22.9833 43.5056 22.6241 44.3396 22.6241 45.3716C22.6241 46.4036 22.9833 47.2376 23.7016 47.8736Z" stroke="black" stroke-width="0.5"/>
</g>
<defs>
<filter id="filter0_d" x="0.75" y="0.75" width="73.6997" height="73.4999" filterUnits="userSpaceOnUse" color-interpolation-filters="sRGB">
<feFlood flood-opacity="0" result="BackgroundImageFix"/>
<feColorMatrix in="SourceAlpha" type="matrix" values="0 0 0 0 0 0 0 0 0 0 0 0 0 0 0 0 0 0 127 0"/>
<feOffset dy="4"/>
<feGaussianBlur stdDeviation="2"/>
<feColorMatrix type="matrix" values="0 0 0 0 0 0 0 0 0 0 0 0 0 0 0 0 0 0 0.25 0"/>
<feBlend mode="normal" in2="BackgroundImageFix" result="effect1_dropShadow"/>
<feBlend mode="normal" in="SourceGraphic" in2="effect1_dropShadow" result="shape"/>
</filter>
</defs>
</svg>
