<svg width="75" height="75" viewBox="0 0 75 75" fill="none" xmlns="http://www.w3.org/2000/svg">
<g filter="url(#filter0_d)">
<path d="M34.7913 58.6761L36.1455 55.9296V15.6479H13.1247H12.7705C12.2182 15.6479 11.7705 15.2002 11.7705 14.6479V13.8169V12.9859C11.7705 12.4336 12.2182 11.9859 12.7705 11.9859H13.1247H36.1455V2.83099V2C36.1455 1.44772 36.5932 1 37.1455 1H37.4997H37.8538C38.4061 1 38.8538 1.44772 38.8538 2V2.83099V11.9859H61.8747H62.2288C62.7811 11.9859 63.2288 12.4336 63.2288 12.9859V13.8169V14.6479C63.2288 15.2002 62.7811 15.6479 62.2288 15.6479H61.8747H38.8538V55.9296L40.208 58.6761L53.0546 65.6241C53.2372 65.7228 53.1671 66 52.9595 66H22.0399C21.8323 66 21.7621 65.7228 21.9447 65.6241L34.7913 58.6761Z" fill="white" stroke="black" stroke-width="0.5"/>
<path d="M26.6667 35.7887C26.6667 37.1112 26.3865 38.4207 25.842 39.6425C25.2976 40.8643 24.4996 41.9745 23.4937 42.9096C22.4877 43.8447 21.2934 44.5865 19.9791 45.0926C18.6647 45.5987 17.256 45.8591 15.8333 45.8591C14.4107 45.8591 13.002 45.5987 11.6876 45.0926C10.3732 44.5865 9.17898 43.8447 8.17301 42.9096C7.16704 41.9745 6.36906 40.8643 5.82464 39.6425C5.28021 38.4207 5 37.1112 5 35.7887H6.35417L13.8021 15.6479L14.3772 14.8702C14.4447 14.779 14.5272 14.6999 14.6212 14.6364L15.8333 13.8169V15.6479L8.38542 35.7887H15.8333H23.4937L15.8333 15.6479V13.8169L17.0455 14.6364C17.1395 14.6999 17.222 14.779 17.2894 14.8702L17.8646 15.6479L25.3125 35.7887H26.6667Z" fill="#00674C"/>
<path d="M15.8333 15.6479L8.38542 35.7887H15.8333H23.4937L15.8333 15.6479ZM15.8333 15.6479V13.8169M15.8333 13.8169L14.6212 14.6364C14.5272 14.6999 14.4447 14.779 14.3772 14.8702L13.8021 15.6479L6.35417 35.7887H5C5 37.1112 5.28021 38.4207 5.82464 39.6425C6.36906 40.8643 7.16704 41.9745 8.17301 42.9096C9.17898 43.8447 10.3732 44.5865 11.6876 45.0926C13.002 45.5987 14.4107 45.8591 15.8333 45.8591C17.256 45.8591 18.6647 45.5987 19.9791 45.0926C21.2934 44.5865 22.4877 43.8447 23.4937 42.9096C24.4996 41.9745 25.2976 40.8643 25.842 39.6425C26.3865 38.4207 26.6667 37.1112 26.6667 35.7887H25.3125L17.8646 15.6479L17.2894 14.8702C17.222 14.779 17.1395 14.6999 17.0455 14.6364L15.8333 13.8169Z" stroke="black" stroke-width="0.5"/>
<path d="M69.9997 35.7887C69.9997 37.1112 69.7195 38.4207 69.175 39.6425C68.6306 40.8643 67.8326 41.9745 66.8267 42.9096C65.8207 43.8447 64.6264 44.5865 63.3121 45.0926C61.9977 45.5987 60.589 45.8591 59.1663 45.8591C57.7437 45.8591 56.335 45.5987 55.0206 45.0926C53.7062 44.5865 52.512 43.8447 51.506 42.9096C50.5 41.9745 49.7021 40.8643 49.1576 39.6425C48.6132 38.4207 48.333 37.1112 48.333 35.7887H49.6872L57.1351 15.6479L57.7102 14.8702C57.7777 14.779 57.8602 14.6999 57.9542 14.6364L59.1663 13.8169V15.6479L51.7184 35.7887H59.1663H66.8267L59.1663 15.6479V13.8169L60.3785 14.6364C60.4725 14.6999 60.555 14.779 60.6224 14.8702L61.1976 15.6479L68.6455 35.7887H69.9997Z" fill="#00674C"/>
<path d="M59.1663 15.6479L51.7184 35.7887H59.1663H66.8267L59.1663 15.6479ZM59.1663 15.6479V13.8169M59.1663 13.8169L57.9542 14.6364C57.8602 14.6999 57.7777 14.779 57.7102 14.8702L57.1351 15.6479L49.6872 35.7887H48.333C48.333 37.1112 48.6132 38.4207 49.1576 39.6425C49.7021 40.8643 50.5 41.9745 51.506 42.9096C52.512 43.8447 53.7062 44.5865 55.0206 45.0926C56.335 45.5987 57.7437 45.8591 59.1663 45.8591C60.589 45.8591 61.9977 45.5987 63.3121 45.0926C64.6264 44.5865 65.8207 43.8447 66.8267 42.9096C67.8326 41.9745 68.6306 40.8643 69.175 39.6425C69.7195 38.4207 69.9997 37.1112 69.9997 35.7887H68.6455L61.1976 15.6479L60.6224 14.8702C60.555 14.779 60.4725 14.6999 60.3785 14.6364L59.1663 13.8169Z" stroke="black" stroke-width="0.5"/>
</g>
<defs>
<filter id="filter0_d" x="0.75" y="0.75" width="73.4997" height="73.5" filterUnits="userSpaceOnUse" color-interpolation-filters="sRGB">
<feFlood flood-opacity="0" result="BackgroundImageFix"/>
<feColorMatrix in="SourceAlpha" type="matrix" values="0 0 0 0 0 0 0 0 0 0 0 0 0 0 0 0 0 0 127 0"/>
<feOffset dy="4"/>
<feGaussianBlur stdDeviation="2"/>
<feColorMatrix type="matrix" values="0 0 0 0 0 0 0 0 0 0 0 0 0 0 0 0 0 0 0.25 0"/>
<feBlend mode="normal" in2="BackgroundImageFix" result="effect1_dropShadow"/>
<feBlend mode="normal" in="SourceGraphic" in2="effect1_dropShadow" result="shape"/>
</filter>
</defs>
</svg>
