<svg width="75" height="75" viewBox="0 0 75 75" fill="none" xmlns="http://www.w3.org/2000/svg">
<g filter="url(#filter0_d)">
<ellipse cx="14.2387" cy="13.9995" rx="5.12735" ry="5" fill="white" stroke="black" stroke-width="0.5"/>
<path d="M28.5956 35C28.5956 33.8005 22.9555 31.5 19.8133 30.5C19.8133 27.369 19.054 25.4565 17.5925 22.9604C17.2408 22.3599 16.5912 21.9995 15.8953 21.9995H11.1627C5.3223 21.9995 5.93713 25.898 5.21547 29.1341C5.1609 29.3788 5.11352 29.6238 5.0878 29.8732C4.58967 34.7035 4.14049 42.3132 5.63977 42.8005C7.06608 42.3368 7.74966 34.9919 7.84135 30.4978C7.85261 29.9457 8.29979 29.5 8.85207 29.5H9.62266C10.1855 29.5 10.6375 29.9644 10.6223 30.527L10.0202 52.7995L9.62444 55.5C9.11171 59 5.98752 65 8.59897 65C11.6754 65 14.6836 56 14.6836 52.7995V46.5495C14.6836 45.4449 15.5791 44.5495 16.6836 44.5495H17.0153C19.8133 44.5495 21.5853 48.3995 23.0776 52.7995C23.8659 56.465 26.6994 55.7896 27.8318 54.8601C28.1144 54.6281 28.2105 54.2549 28.1963 53.8895C27.9179 46.749 22.3763 41.9393 19.8133 39.5995V34.5L23.981 35.5C26.5446 36 28.5956 36.1995 28.5956 35Z" fill="white" stroke="black" stroke-width="0.5"/>
<rect x="16.5625" y="57.1392" width="13.6032" height="8.86108" fill="#00674C" stroke="black" stroke-width="0.5"/>
<rect x="33.5654" y="43.8472" width="13.6032" height="22.1527" fill="#00674C" stroke="black" stroke-width="0.5"/>
<path d="M46.1484 33.8783L58.0512 13.9409L69.6139 33.8783H64.8528V65.9998H51.2496V33.8783H46.1484Z" fill="#00674C" stroke="black" stroke-width="0.5"/>
<path d="M56.8082 8.40343L56.196 6.84831L55.5104 8.40343H53.5107L55.2003 4.8014L53.5597 1.13292H55.641L56.2776 2.67474L56.9469 1.13292H58.8813L57.2407 4.66849L58.9221 8.40343H56.8082Z" fill="white"/>
<path d="M62.232 1C62.6238 1 62.9829 1.15507 63.3094 1.46521C63.6413 1.76648 63.9025 2.20511 64.0929 2.78108C64.2888 3.35705 64.3867 4.02163 64.3867 4.77482C64.3867 5.52801 64.2888 6.19259 64.0929 6.76856C63.9025 7.33567 63.6413 7.7743 63.3094 8.08443C62.9829 8.38571 62.6238 8.53635 62.232 8.53635C61.7368 8.53635 61.3587 8.32811 61.0975 7.91164V10.982H59.2529V1.13292H61.0077V1.73104C61.2743 1.24368 61.6824 1 62.232 1ZM61.7913 6.19702C62.0035 6.19702 62.1776 6.07297 62.3136 5.82486C62.4497 5.57675 62.5177 5.22674 62.5177 4.77482C62.5177 4.32291 62.4497 3.97289 62.3136 3.72478C62.1776 3.46781 62.0035 3.33933 61.7913 3.33933C61.579 3.33933 61.4049 3.46781 61.2689 3.72478C61.1329 3.97289 61.0648 4.32291 61.0648 4.77482C61.0648 5.22674 61.1329 5.57675 61.2689 5.82486C61.4049 6.07297 61.579 6.19702 61.7913 6.19702Z" fill="white"/>
<path d="M56.8082 8.40343L56.196 6.84831L55.5104 8.40343H53.5107L55.2003 4.8014L53.5597 1.13292H55.641L56.2776 2.67474L56.9469 1.13292H58.8813L57.2407 4.66849L58.9221 8.40343H56.8082Z" stroke="black" stroke-width="0.5"/>
<path d="M62.232 1C62.6238 1 62.9829 1.15507 63.3094 1.46521C63.6413 1.76648 63.9025 2.20511 64.0929 2.78108C64.2888 3.35705 64.3867 4.02163 64.3867 4.77482C64.3867 5.52801 64.2888 6.19259 64.0929 6.76856C63.9025 7.33567 63.6413 7.7743 63.3094 8.08443C62.9829 8.38571 62.6238 8.53635 62.232 8.53635C61.7368 8.53635 61.3587 8.32811 61.0975 7.91164V10.982H59.2529V1.13292H61.0077V1.73104C61.2743 1.24368 61.6824 1 62.232 1ZM61.7913 6.19702C62.0035 6.19702 62.1776 6.07297 62.3136 5.82486C62.4497 5.57675 62.5177 5.22674 62.5177 4.77482C62.5177 4.32291 62.4497 3.97289 62.3136 3.72478C62.1776 3.46781 62.0035 3.33933 61.7913 3.33933C61.579 3.33933 61.4049 3.46781 61.2689 3.72478C61.1329 3.97289 61.0648 4.32291 61.0648 4.77482C61.0648 5.22674 61.1329 5.57675 61.2689 5.82486C61.4049 6.07297 61.579 6.19702 61.7913 6.19702Z" stroke="black" stroke-width="0.5"/>
</g>
<defs>
<filter id="filter0_d" x="0.364258" y="0.75" width="73.6836" height="73.5002" filterUnits="userSpaceOnUse" color-interpolation-filters="sRGB">
<feFlood flood-opacity="0" result="BackgroundImageFix"/>
<feColorMatrix in="SourceAlpha" type="matrix" values="0 0 0 0 0 0 0 0 0 0 0 0 0 0 0 0 0 0 127 0"/>
<feOffset dy="4"/>
<feGaussianBlur stdDeviation="2"/>
<feColorMatrix type="matrix" values="0 0 0 0 0 0 0 0 0 0 0 0 0 0 0 0 0 0 0.25 0"/>
<feBlend mode="normal" in2="BackgroundImageFix" result="effect1_dropShadow"/>
<feBlend mode="normal" in="SourceGraphic" in2="effect1_dropShadow" result="shape"/>
</filter>
</defs>
</svg>
