<svg id="Warstwa_1" data-name="Warstwa 1" xmlns="http://www.w3.org/2000/svg" viewBox="0 0 335.66 335.66"><defs><style>.cls-1{fill:#00674c;}.cls-2{fill:#ceef9d;}</style></defs><rect class="cls-1" x="79.17" y="79.17" width="177.32" height="177.32" rx="17.04"/><path class="cls-2" d="M159.92,181.9l-30.39-54.52a.63.63,0,0,1,.56-.94h20a.64.64,0,0,1,.62.51l10.36,54.52A.64.64,0,0,1,159.92,181.9Z"/><path class="cls-2" d="M167.33,180.38l-9.69-76a.62.62,0,0,1,.63-.7h19.36a.62.62,0,0,1,.62.7l-9.69,76.05A.62.62,0,0,1,167.33,180.38Z"/><path class="cls-2" d="M206.13,127.38l-30.4,54.51a.63.63,0,0,1-1.16-.43l10.36-54.52a.62.62,0,0,1,.61-.51h20.05A.65.65,0,0,1,206.13,127.38Z"/><path class="cls-2" d="M110.9,212.56a1.36,1.36,0,0,1-.52,1.07,9.57,9.57,0,0,1-1.52,1,9,9,0,0,1-7.47.24,9,9,0,0,1-2.87-1.92,9.17,9.17,0,0,1-1.94-2.85,8.93,8.93,0,0,1-.7-3.5,8.8,8.8,0,0,1,.7-3.46,9,9,0,0,1,4.81-4.78,9,9,0,0,1,7.48.23,8.35,8.35,0,0,1,1.56,1,1.27,1.27,0,0,1,.49,1,1.33,1.33,0,0,1-.53,1.06,1.3,1.3,0,0,1-.81.28,1.48,1.48,0,0,1-.89-.31,6,6,0,0,0-1-.65,6.44,6.44,0,0,0-5.24-.16,6.36,6.36,0,0,0-2,1.33,6.29,6.29,0,0,0-1.34,2,6.28,6.28,0,0,0,0,4.84,6.1,6.1,0,0,0,1.33,2,6.78,6.78,0,0,0,2,1.35,6.24,6.24,0,0,0,5.24-.16,6.57,6.57,0,0,0,1-.65,1.47,1.47,0,0,1,.89-.3,1.32,1.32,0,0,1,.81.27A1.39,1.39,0,0,1,110.9,212.56Z"/><path class="cls-2" d="M137,192.66V214a1.36,1.36,0,0,1-2.71,0V192.66a1.36,1.36,0,0,1,2.71,0Z"/><path class="cls-2" d="M156.07,199v8.86a7.6,7.6,0,0,1-3.46,6.44,8.66,8.66,0,0,1-2,.95,7.61,7.61,0,0,1-4.5,0,8.47,8.47,0,0,1-2-.95,8.06,8.06,0,0,1-2.52-2.73,7.44,7.44,0,0,1-.94-3.71V199a1.35,1.35,0,1,1,2.7,0v8.86a4.94,4.94,0,0,0,.4,2,5.07,5.07,0,0,0,1.07,1.58,5.25,5.25,0,0,0,1.6,1.08,5,5,0,0,0,2,.39,4.84,4.84,0,0,0,1.94-.39,5.61,5.61,0,0,0,1.6-1.07,4.93,4.93,0,0,0,1.48-3.55V199a1.36,1.36,0,1,1,2.71,0Z"/><path class="cls-2" d="M187.81,205.28v8.94a1.36,1.36,0,0,1-2.72,0v-8.94a5,5,0,0,0-.39-2,5.42,5.42,0,0,0-1.09-1.59,5.21,5.21,0,0,0-1.61-1.09,4.73,4.73,0,0,0-1.95-.4,4.88,4.88,0,0,0-2,.4,5.07,5.07,0,0,0-1.63,1.09,5.34,5.34,0,0,0-1.09,1.6,4.93,4.93,0,0,0-.4,1.95v8.94a1.36,1.36,0,1,1-2.71,0v-8.94a4.83,4.83,0,0,0-.4-1.95,5,5,0,0,0-2.68-2.69,4.81,4.81,0,0,0-2-.4,5,5,0,0,0-2,.4,5.14,5.14,0,0,0-1.62,1.09,5,5,0,0,0-1.09,1.6,4.93,4.93,0,0,0-.4,1.95v8.94a1.36,1.36,0,1,1-2.71,0v-9.46a6.81,6.81,0,0,1,3.06-5.68l.41-.27a8.32,8.32,0,0,1,2-.95,7.79,7.79,0,0,1,2.27-.33,7.91,7.91,0,0,1,2.28.33,7.51,7.51,0,0,1,2,.95,7.61,7.61,0,0,1,1.76,1.61l.38.49.38-.49a8,8,0,0,1,1.72-1.62,8.58,8.58,0,0,1,2-.94,8,8,0,0,1,4.55,0,7.37,7.37,0,0,1,2,.95,7.75,7.75,0,0,1,3.48,6.47Z"/><path class="cls-2" d="M208,203.12a9,9,0,0,0-1.94-2.87,8.34,8.34,0,0,0-2.82-1.93,10,10,0,0,0-3.83-.69,8.27,8.27,0,0,0-5.22,1.57l-.78.55,0-7.1a1.34,1.34,0,0,0-1.35-1.35,1.36,1.36,0,0,0-1.34,1.35v13.94a8.88,8.88,0,0,0,.69,3.52,9.14,9.14,0,0,0,1.95,2.87,8.32,8.32,0,0,0,2.81,1.89,9.3,9.3,0,0,0,7,0,8.39,8.39,0,0,0,2.82-1.9,8.81,8.81,0,0,0,2.63-6.38A8.77,8.77,0,0,0,208,203.12ZM204.18,211a6.54,6.54,0,0,1-2,1.35,5.9,5.9,0,0,1-2.41.49,6,6,0,0,1-2.45-.49,6.79,6.79,0,0,1-2-1.35,6.71,6.71,0,0,1-1.34-2,5.94,5.94,0,0,1-.53-2.45l.08-3.71a8.53,8.53,0,0,1,5.59-2.58,5.36,5.36,0,0,1,.7.05l.46.06a6,6,0,0,1,3.89,1.75,6.77,6.77,0,0,1,1.34,2,6.56,6.56,0,0,1,.49,2.4,6.7,6.7,0,0,1-.49,2.46A6.61,6.61,0,0,1,204.18,211Z"/><path class="cls-2" d="M226.79,199v8.86a7.39,7.39,0,0,1-.94,3.71,7.54,7.54,0,0,1-2.53,2.73,8.47,8.47,0,0,1-2,.95,7.61,7.61,0,0,1-2.25.34,7.71,7.71,0,0,1-2.25-.34,8.23,8.23,0,0,1-2-.95,8,8,0,0,1-2.53-2.73,7.47,7.47,0,0,1-.94-3.71V199a1.36,1.36,0,1,1,2.71,0v8.86a4.9,4.9,0,0,0,.39,2,5.44,5.44,0,0,0,1.07,1.58,4.91,4.91,0,0,0,1.6,1.08,5,5,0,0,0,2,.39,4.84,4.84,0,0,0,1.94-.39,5.41,5.41,0,0,0,1.6-1.07,5,5,0,0,0,1.09-1.59,4.9,4.9,0,0,0,.39-2V199a1.36,1.36,0,1,1,2.72,0Z"/><path class="cls-2" d="M239.78,210.61a4.78,4.78,0,0,1-.49,2,5.32,5.32,0,0,1-1.22,1.61,5.38,5.38,0,0,1-1.77,1.07,5.62,5.62,0,0,1-2,.35h-.19a6.08,6.08,0,0,1-2.86-.83,6.42,6.42,0,0,1-.6-.42,1.22,1.22,0,0,1-.46-1,1.35,1.35,0,0,1,.56-1,1.5,1.5,0,0,1,.84-.27,1.47,1.47,0,0,1,.88.29,2.84,2.84,0,0,0,1.74.55,2.91,2.91,0,0,0,1.93-.63,2.14,2.14,0,0,0,.88-1.76A1.66,1.66,0,0,0,237,210l-.12-.44a2.65,2.65,0,0,0-1.11-1.16l-.3-.18a12.06,12.06,0,0,0-1.14-.58c-.41-.17-.81-.36-1.23-.56s-.81-.41-1.2-.63a7.37,7.37,0,0,1-1-.65,5.87,5.87,0,0,1-1.28-1.74,4,4,0,0,1-.34-1.81,4.11,4.11,0,0,1,.45-1.81A4.63,4.63,0,0,1,230.9,199a5.25,5.25,0,0,1,1.66-1,5.11,5.11,0,0,1,1.85-.33,6.06,6.06,0,0,1,2.74.69c.16.09.31.19.46.29a1,1,0,0,1,.42.85,1.07,1.07,0,0,1-.48.89l-.47.33a2.11,2.11,0,0,1-.71.15h-.14l-.35-.13a2.57,2.57,0,0,0-1.35-.36,2.68,2.68,0,0,0-1.7.49,1.76,1.76,0,0,0-.8,1.44l.09.49a1.62,1.62,0,0,0,.45.79,2.61,2.61,0,0,0,.87.56c.42.25.95.53,1.55.81s1.15.56,1.74.89a4.78,4.78,0,0,1,1.21.78,7.14,7.14,0,0,1,.9,1,5.59,5.59,0,0,1,.71,1.4A4.42,4.42,0,0,1,239.78,210.61Z"/><path class="cls-2" d="M130.42,203a9,9,0,0,0-11.7-4.75,8.93,8.93,0,0,0-2.84,1.91,8.85,8.85,0,0,0-2.6,6.32,8.82,8.82,0,0,0,.69,3.48,8.68,8.68,0,0,0,1.91,2.83,8.93,8.93,0,0,0,2.84,1.91,8.94,8.94,0,0,0,11.7-11.7Zm-3.81,7.88a6.17,6.17,0,0,1-2,1.34,6.29,6.29,0,0,1-4.82,0,6.34,6.34,0,0,1-2-1.34,6.59,6.59,0,0,1-1.34-2,6.13,6.13,0,0,1,0-4.85,6.49,6.49,0,0,1,1.35-2,6.39,6.39,0,0,1,2-1.33,6.24,6.24,0,0,1,6.81,1.33,6.63,6.63,0,0,1,1.34,2,6.36,6.36,0,0,1,.47,2.42,6.06,6.06,0,0,1-1.81,4.4Z"/><path class="cls-2" d="M188.31,224.47h3.76a.64.64,0,1,0,0-1.27h-4.5a.67.67,0,0,0-.71.62v7.55a.67.67,0,0,0,.71.62H192a.67.67,0,0,0,.71-.62.67.67,0,0,0-.71-.62h-3.68v-3h3.26a.61.61,0,1,0,0-1.21h-3.26Zm-13.19,0h1.78v6.94a.74.74,0,0,0,1.46,0v-6.94h1.77a.63.63,0,1,0,0-1.24h-5a.63.63,0,1,0,0,1.24ZM167.66,232h0a.7.7,0,0,0,.74-.65v-7.54a.74.74,0,0,0-1.47,0v7.54A.69.69,0,0,0,167.66,232Zm-12-8.83h0a.69.69,0,0,0-.73.64v7.58a.66.66,0,0,0,.7.62h4.15a.64.64,0,1,0,0-1.26h-3.38v-6.94A.7.7,0,0,0,155.64,223.19Zm-11.31,1.28h3.75a.64.64,0,1,0,0-1.27h-4.5a.67.67,0,0,0-.71.62v7.55a.67.67,0,0,0,.71.62H148a.67.67,0,0,0,.71-.62.67.67,0,0,0-.71-.62h-3.67v-3h3.25a.61.61,0,1,0,0-1.21h-3.25Z"/></svg>