<svg id="Warstwa_1" data-name="Warstwa 1" xmlns="http://www.w3.org/2000/svg" viewBox="0 0 310.57 310.57"><defs><style>.cls-1{fill:#00674c;}.cls-2{fill:#ceef9d;}</style></defs><rect class="cls-1" width="310.57" height="310.57" rx="29.84"/><path class="cls-2" d="M141.42,179.92,88.2,84.44a1.11,1.11,0,0,1,1-1.65h35.1a1.13,1.13,0,0,1,1.09.9l18.13,95.48A1.12,1.12,0,0,1,141.42,179.92Z"/><path class="cls-2" d="M154.4,177.26l-17-133.19a1.1,1.1,0,0,1,1.1-1.23h33.92a1.08,1.08,0,0,1,1.08,1.23l-17,133.19A1.09,1.09,0,0,1,154.4,177.26Z"/><path class="cls-2" d="M222.37,84.44,169.13,179.9a1.1,1.1,0,0,1-2-.75l18.13-95.48a1.1,1.1,0,0,1,1.08-.9h35.11A1.15,1.15,0,0,1,222.37,84.44Z"/><path class="cls-2" d="M55.57,233.62a2.38,2.38,0,0,1-.91,1.88A16.59,16.59,0,0,1,52,237.2a15.76,15.76,0,0,1-13.08.42,15.87,15.87,0,0,1-8.41-8.36,15.36,15.36,0,0,1-1.23-6.13,15.16,15.16,0,0,1,1.23-6.06,15.94,15.94,0,0,1,8.41-8.37,15.47,15.47,0,0,1,15.84,2.17,2.21,2.21,0,0,1,.85,1.82,2.35,2.35,0,0,1-.92,1.86,2.27,2.27,0,0,1-1.42.49,2.58,2.58,0,0,1-1.56-.55,11.09,11.09,0,0,0-11-1.41,11.15,11.15,0,0,0-3.51,2.33,11.38,11.38,0,0,0-2.36,3.49,11,11,0,0,0,0,8.48,11.16,11.16,0,0,0,2.34,3.48,11.76,11.76,0,0,0,3.5,2.35,10.82,10.82,0,0,0,9.17-.27,13,13,0,0,0,1.8-1.13,2.54,2.54,0,0,1,1.55-.54,2.31,2.31,0,0,1,1.41.48A2.37,2.37,0,0,1,55.57,233.62Z"/><path class="cls-2" d="M101.22,198.78v37.38a2.38,2.38,0,0,1-4.75,0V198.78a2.38,2.38,0,1,1,4.75,0Z"/><path class="cls-2" d="M134.69,209.92v15.53a13.22,13.22,0,0,1-1.63,6.49,13.51,13.51,0,0,1-4.44,4.79,15.2,15.2,0,0,1-3.54,1.65,13.2,13.2,0,0,1-7.87,0,14.31,14.31,0,0,1-3.54-1.66,13.88,13.88,0,0,1-4.41-4.78,13,13,0,0,1-1.66-6.49V209.92a2.37,2.37,0,1,1,4.74,0v15.53a8.62,8.62,0,0,0,.7,3.43,8.83,8.83,0,0,0,8.1,5.35,8.53,8.53,0,0,0,3.41-.7,9.49,9.49,0,0,0,2.79-1.87,9,9,0,0,0,1.92-2.79,8.85,8.85,0,0,0,.69-3.42V209.92a2.37,2.37,0,1,1,4.74,0Z"/><path class="cls-2" d="M190.27,220.87v15.67a2.38,2.38,0,0,1-4.75,0V220.87a8.61,8.61,0,0,0-.7-3.42,9,9,0,0,0-4.72-4.71,8.46,8.46,0,0,0-3.41-.7,9,9,0,0,0-6.29,2.61,9,9,0,0,0-1.91,2.81,8.53,8.53,0,0,0-.7,3.41v15.67a2.37,2.37,0,0,1-4.74,0V220.87a8.67,8.67,0,0,0-.7-3.41,9.37,9.37,0,0,0-1.91-2.82,9.07,9.07,0,0,0-2.8-1.9,8.59,8.59,0,0,0-3.43-.7,8.82,8.82,0,0,0-3.44.7,8.9,8.9,0,0,0-4.75,4.72,8.53,8.53,0,0,0-.7,3.41v15.67a2.37,2.37,0,0,1-4.74,0V220a11.86,11.86,0,0,1,5.35-9.95l.72-.49a14.75,14.75,0,0,1,3.58-1.65,13.63,13.63,0,0,1,11.48,1.65,14.12,14.12,0,0,1,3.08,2.83l.67.86.67-.86a13.75,13.75,0,0,1,3-2.84,15.12,15.12,0,0,1,3.56-1.64,13.79,13.79,0,0,1,8,0,13.53,13.53,0,0,1,9.59,13Z"/><path class="cls-2" d="M225.67,217.09a15.7,15.7,0,0,0-3.4-5,15.05,15.05,0,0,0-4.93-3.38,17.93,17.93,0,0,0-6.71-1.21,14.45,14.45,0,0,0-9.15,2.76l-1.36,1,.06-12.44a2.33,2.33,0,0,0-2.36-2.36,2.39,2.39,0,0,0-2.34,2.36v24.42a15.46,15.46,0,0,0,1.21,6.16,15.71,15.71,0,0,0,3.4,5,14.84,14.84,0,0,0,4.92,3.33,16.17,16.17,0,0,0,6.16,1.2,15.87,15.87,0,0,0,6.16-1.2,14.9,14.9,0,0,0,4.94-3.34,15.5,15.5,0,0,0,3.4-5,15.7,15.7,0,0,0,1.21-6.16A15.31,15.31,0,0,0,225.67,217.09ZM218.94,231a11.41,11.41,0,0,1-3.48,2.35,10.06,10.06,0,0,1-4.23.86,10.28,10.28,0,0,1-4.29-.86,11.06,11.06,0,0,1-5.83-5.82,10.48,10.48,0,0,1-.93-4.29l.14-6.5c.78-1.16,5.37-4.52,9.8-4.52a8.29,8.29,0,0,1,1.23.08l.81.11a10.83,10.83,0,0,1,3.28.74,10.54,10.54,0,0,1,3.53,2.33,12.27,12.27,0,0,1,2.35,3.54,11.57,11.57,0,0,1,.85,4.2,11.94,11.94,0,0,1-.86,4.3A11.71,11.71,0,0,1,218.94,231Z"/><path class="cls-2" d="M258.54,209.92v15.53a13.07,13.07,0,0,1-1.64,6.49,13.33,13.33,0,0,1-4.44,4.79,14.48,14.48,0,0,1-3.54,1.65,13.13,13.13,0,0,1-3.93.6,13.34,13.34,0,0,1-3.94-.6,14.59,14.59,0,0,1-3.53-1.66,14,14,0,0,1-4.42-4.78,13.08,13.08,0,0,1-1.65-6.49V209.92a2.38,2.38,0,1,1,4.75,0v15.53a8.55,8.55,0,0,0,.69,3.43,9.25,9.25,0,0,0,1.86,2.76,8.76,8.76,0,0,0,9.65,1.89,9.36,9.36,0,0,0,2.79-1.87,9,9,0,0,0,1.91-2.78,8.55,8.55,0,0,0,.69-3.43V209.92a2.38,2.38,0,1,1,4.75,0Z"/><path class="cls-2" d="M281.29,230.2a8.37,8.37,0,0,1-.85,3.47,9.42,9.42,0,0,1-2.13,2.83,9.61,9.61,0,0,1-3.12,1.87,9.87,9.87,0,0,1-3.43.61h-.32a10.58,10.58,0,0,1-5-1.46,9.73,9.73,0,0,1-1.05-.72,2.17,2.17,0,0,1-.81-1.76,2.41,2.41,0,0,1,1-1.83,2.61,2.61,0,0,1,1.47-.46,2.56,2.56,0,0,1,1.53.51,5.49,5.49,0,0,0,6.43-.14,3.78,3.78,0,0,0,1.55-3.08,3,3,0,0,0-.1-.91l-.21-.76a4.54,4.54,0,0,0-1.93-2l-.54-.32a16.91,16.91,0,0,0-2-1c-.71-.3-1.41-.63-2.14-1s-1.43-.72-2.12-1.12a11.87,11.87,0,0,1-1.66-1.13,9.72,9.72,0,0,1-2.24-3.05,6.82,6.82,0,0,1-.61-3.16,7.18,7.18,0,0,1,.79-3.17,8.12,8.12,0,0,1,2-2.55,9.13,9.13,0,0,1,2.9-1.73,9,9,0,0,1,3.25-.58,10.46,10.46,0,0,1,4.79,1.21,9.47,9.47,0,0,1,.82.51,1.82,1.82,0,0,1,.73,1.48,1.85,1.85,0,0,1-.83,1.56l-.83.58a3.75,3.75,0,0,1-1.24.27h-.24l-.63-.23a4.58,4.58,0,0,0-2.36-.63,4.71,4.71,0,0,0-3,.86,3.06,3.06,0,0,0-1.39,2.51l.15.87a2.74,2.74,0,0,0,.79,1.37,4.38,4.38,0,0,0,1.52,1c.74.43,1.66.91,2.71,1.41s2,1,3.06,1.57a8.86,8.86,0,0,1,2.12,1.35,14.73,14.73,0,0,1,1.57,1.7,9.7,9.7,0,0,1,1.24,2.47A7.48,7.48,0,0,1,281.29,230.2Z"/><path class="cls-2" d="M89.76,216.82a15.74,15.74,0,0,0-3.34-5,16,16,0,0,0-5-3.34,15.29,15.29,0,0,0-6.09-1.21,15.48,15.48,0,0,0-6.1,1.21,16,16,0,0,0-5,3.34,15.5,15.5,0,0,0-3.33,5A15.67,15.67,0,0,0,64.29,234a15.67,15.67,0,0,0,5,3.35,16,16,0,0,0,12.19,0,15.67,15.67,0,0,0,5-3.35,15.79,15.79,0,0,0,3.34-17.15Zm-6.67,13.81a10.88,10.88,0,0,1-7.7,3.19,10.52,10.52,0,0,1-4.23-.85,10.72,10.72,0,0,1-3.48-2.34,11.41,11.41,0,0,1-2.36-3.47,10.68,10.68,0,0,1,0-8.49,11.31,11.31,0,0,1,2.37-3.48,10.68,10.68,0,0,1,3.47-2.34,11,11,0,0,1,8.45,0,10.62,10.62,0,0,1,3.48,2.34,11.18,11.18,0,0,1,2.33,3.49,10.94,10.94,0,0,1-2.33,11.95Z"/><path class="cls-2" d="M191.16,254.48h6.58a1.12,1.12,0,1,0,0-2.22h-7.89a1.17,1.17,0,0,0-1.24,1.09v13.22a1.17,1.17,0,0,0,1.24,1.09h7.74a1.09,1.09,0,1,0,0-2.17h-6.43v-5.23h5.7a1.06,1.06,0,1,0,0-2.11h-5.7Zm-23.11-.07h3.12v12.15a1.29,1.29,0,0,0,2.55,0V254.41h3.11a1.09,1.09,0,1,0,0-2.17h-8.78a1.09,1.09,0,1,0,0,2.17ZM155,267.7h0a1.21,1.21,0,0,0,1.28-1.13v-13.2a1.3,1.3,0,0,0-2.57,0v13.2A1.21,1.21,0,0,0,155,267.7Zm-21.06-15.46h0a1.22,1.22,0,0,0-1.29,1.13v13.27a1.17,1.17,0,0,0,1.24,1.08h7.27a1.11,1.11,0,1,0,0-2.21h-5.93V253.37A1.22,1.22,0,0,0,133.93,252.24Zm-19.81,2.24h6.57a1.12,1.12,0,1,0,0-2.22h-7.88a1.17,1.17,0,0,0-1.24,1.09v13.22a1.17,1.17,0,0,0,1.24,1.09h7.74a1.09,1.09,0,1,0,0-2.17h-6.43v-5.23h5.7a1.06,1.06,0,1,0,0-2.11h-5.7Z"/></svg>