<svg width="110" height="110" viewBox="0 0 110 110" fill="none" xmlns="http://www.w3.org/2000/svg">
<g clip-path="url(#clip0)">
<path d="M77.5555 76.3026C77.201 75.9478 76.7792 75.6673 76.3149 75.4776C75.9421 75.3302 75.5486 75.2423 75.1486 75.217L74.8632 75.1798C74.7197 75.1568 74.5744 75.1464 74.429 75.1488C73.1141 75.232 71.8776 75.8027 70.9613 76.7493L70.9116 79.057C70.9124 79.5792 71.0244 80.0952 71.2404 80.5706C71.4404 81.0309 71.7221 81.4512 72.0717 81.8113C72.4327 82.1614 72.8527 82.4449 73.3124 82.6488C73.7945 82.8547 74.3142 82.9582 74.8384 82.9527C75.3526 82.9576 75.862 82.854 76.3335 82.6488C76.7954 82.449 77.2161 82.165 77.5742 81.8113C77.9271 81.4526 78.211 81.0321 78.4116 80.5706C78.6081 80.0856 78.7112 79.5678 78.7156 79.0446C78.7086 78.5336 78.6055 78.0285 78.4116 77.5557C78.2047 77.0895 77.9146 76.6649 77.5555 76.3026Z" fill="white"/>
<path d="M29.4293 76.1972C28.8846 75.6592 28.1931 75.2938 27.4416 75.1471C26.6901 75.0003 25.912 75.0786 25.2048 75.3722C24.7428 75.5663 24.3218 75.8463 23.9641 76.1972C23.6098 76.5548 23.3258 76.9757 23.1266 77.4379C22.922 77.9131 22.8164 78.425 22.8164 78.9423C22.8164 79.4596 22.922 79.9715 23.1266 80.4466C23.3252 80.9077 23.607 81.3283 23.9579 81.6873C24.3146 82.0411 24.7357 82.3233 25.1986 82.5186C25.6725 82.7152 26.1805 82.8164 26.6936 82.8164C27.2067 82.8164 27.7147 82.7152 28.1887 82.5186C28.6528 82.3257 29.0744 82.0432 29.4293 81.6873C29.791 81.3316 30.0769 80.9064 30.2698 80.4374C30.4628 79.9683 30.5588 79.465 30.5522 78.9578C30.5661 78.439 30.4776 77.9225 30.2916 77.4379C30.0833 76.9747 29.7909 76.554 29.4293 76.1972Z" fill="white"/>
<path d="M99.4294 0H10.5708C7.77386 0 5.09147 1.11108 3.11373 3.08883C1.13599 5.06657 0.0249023 7.74896 0.0249023 10.5459V99.4293C0.0249023 102.226 1.13599 104.909 3.11373 106.886C5.09147 108.864 7.77386 109.975 10.5708 109.975H99.4294C102.226 109.975 104.909 108.864 106.886 106.886C108.864 104.909 109.975 102.226 109.975 99.4293V10.5707C109.979 9.18373 109.708 7.80971 109.18 6.52736C108.651 5.245 107.875 4.0795 106.895 3.09759C105.916 2.11568 104.752 1.33666 103.471 0.805128C102.19 0.273596 100.816 -3.83941e-06 99.4294 0ZM65.9864 29.3176H78.4244C78.4918 29.3214 78.5571 29.3419 78.6144 29.3775C78.6717 29.413 78.7192 29.4623 78.7526 29.521C78.7859 29.5796 78.804 29.6457 78.8052 29.7131C78.8064 29.7805 78.7906 29.8472 78.7594 29.9069L59.907 63.7221C59.8622 63.8044 59.7892 63.8679 59.7015 63.901C59.6137 63.934 59.517 63.9344 59.429 63.902C59.341 63.8697 59.2675 63.8068 59.222 63.7248C59.1766 63.6427 59.1621 63.5471 59.1812 63.4553L65.608 29.634C65.624 29.5453 65.6707 29.465 65.7399 29.4072C65.809 29.3493 65.8963 29.3176 65.9864 29.3176ZM49.0696 15.1737H61.0795C61.1345 15.1732 61.1889 15.1846 61.2391 15.2069C61.2893 15.2293 61.3342 15.2621 61.3706 15.3033C61.4071 15.3444 61.4343 15.3929 61.4504 15.4455C61.4665 15.498 61.4712 15.5534 61.4641 15.6079L55.4529 62.7854C55.4411 62.8782 55.3958 62.9635 55.3256 63.0253C55.2553 63.0871 55.165 63.1212 55.0714 63.1212C54.9779 63.1212 54.8875 63.0871 54.8173 63.0253C54.7471 62.9635 54.7018 62.8782 54.6899 62.7854L48.6788 15.639C48.6664 15.5816 48.6673 15.5223 48.6815 15.4654C48.6956 15.4085 48.7225 15.3555 48.7603 15.3106C48.798 15.2658 48.8454 15.2301 48.899 15.2063C48.9527 15.1826 49.011 15.1714 49.0696 15.1737ZM31.5882 29.3238H43.9951C44.0857 29.3248 44.1733 29.3567 44.2432 29.4142C44.3132 29.4718 44.3614 29.5515 44.3797 29.6402L50.8065 63.4615C50.8249 63.5546 50.8094 63.6513 50.7627 63.7339C50.716 63.8165 50.6412 63.8796 50.552 63.9119C50.4627 63.9441 50.3649 63.9434 50.2761 63.9097C50.1874 63.876 50.1137 63.8116 50.0683 63.7283L31.216 29.9069C31.1807 29.8451 31.163 29.7748 31.1647 29.7036C31.1665 29.6324 31.1877 29.563 31.226 29.503C31.2643 29.443 31.3183 29.3945 31.3821 29.363C31.446 29.3314 31.5172 29.3179 31.5882 29.3238ZM12.3574 80.5397C12.5521 81.0014 12.832 81.4223 13.1825 81.7804C13.5426 82.1315 13.9629 82.4151 14.4232 82.6179C14.901 82.8244 15.4163 82.93 15.9368 82.928C16.5404 82.9344 17.1366 82.7939 17.6738 82.5186C17.8924 82.4033 18.1 82.2683 18.2941 82.1154C18.4529 81.9946 18.6468 81.9293 18.8462 81.9293C19.0275 81.9288 19.204 81.9876 19.3487 82.0968C19.4483 82.1766 19.5288 82.2776 19.5846 82.3924C19.6404 82.5072 19.67 82.6329 19.6713 82.7605C19.6713 82.8884 19.6423 83.0146 19.5864 83.1296C19.5306 83.2446 19.4493 83.3453 19.3487 83.4243C19.0548 83.6606 18.7391 83.8683 18.4058 84.0447C17.6891 84.4 16.9045 84.5972 16.105 84.6229C15.3055 84.6486 14.5098 84.5021 13.7718 84.1936C13.107 83.9152 12.5024 83.5107 11.9914 83.0025C11.4821 82.4945 11.0737 81.8946 10.7879 81.2345C10.4985 80.5473 10.3508 79.8089 10.3537 79.0633C10.352 78.3258 10.4997 77.5957 10.7879 76.9169C11.3579 75.5772 12.4286 74.5132 13.7718 73.9516C14.5102 73.6411 15.3068 73.4932 16.1074 73.5178C16.9081 73.5424 17.6941 73.739 18.412 74.0943C18.7566 74.2645 19.0812 74.4726 19.3797 74.7146C19.4742 74.7882 19.5507 74.8822 19.6033 74.9897C19.656 75.0972 19.6835 75.2153 19.6837 75.335C19.6835 75.4625 19.6537 75.5883 19.5966 75.7024C19.5396 75.8165 19.4568 75.9158 19.3549 75.9926C19.2119 76.1056 19.0348 76.1668 18.8524 76.1663C18.6524 76.164 18.4585 76.0965 18.3003 75.9739C18.106 75.8213 17.8984 75.6863 17.68 75.5707C17.1754 75.3272 16.6253 75.1925 16.0652 75.1754C15.5052 75.1583 14.9479 75.2591 14.4294 75.4715C13.9672 75.6652 13.5461 75.9452 13.1887 76.2965C12.8383 76.656 12.5566 77.0765 12.3574 77.5372C12.1588 78.0128 12.0565 78.5231 12.0565 79.0385C12.0565 79.5538 12.1588 80.0641 12.3574 80.5397ZM31.7929 81.1166C31.5168 81.7756 31.1142 82.3742 30.608 82.8784C30.1027 83.3833 29.5044 83.7856 28.8462 84.0633C28.1583 84.3499 27.4203 84.4975 26.675 84.4975C25.9297 84.4975 25.1918 84.3499 24.5038 84.0633C23.8456 83.7856 23.2474 83.3833 22.742 82.8784C22.2347 82.3774 21.832 81.7807 21.5572 81.1228C21.2712 80.4347 21.124 79.6968 21.124 78.9516C21.124 78.2064 21.2712 77.4685 21.5572 76.7804C21.8319 76.1206 22.2346 75.5218 22.742 75.0186C23.2474 74.5138 23.8456 74.1114 24.5038 73.8337C25.1918 73.5471 25.9297 73.3995 26.675 73.3995C27.4203 73.3995 28.1583 73.5471 28.8462 73.8337C29.5044 74.1114 30.1027 74.5138 30.608 75.0186C31.3823 75.8013 31.9079 76.7954 32.1188 77.876C32.3296 78.9566 32.2162 80.0755 31.7929 81.0918V81.1166ZM35.8748 83.6414C35.8567 83.8519 35.7603 84.0479 35.6046 84.1908C35.449 84.3336 35.2455 84.4128 35.0342 84.4128C34.823 84.4128 34.6194 84.3336 34.4638 84.1908C34.3081 84.0479 34.2117 83.8519 34.1936 83.6414V70.4032C34.2117 70.1928 34.3081 69.9967 34.4638 69.8539C34.6194 69.7111 34.823 69.6318 35.0342 69.6318C35.2455 69.6318 35.449 69.7111 35.6046 69.8539C35.7603 69.9967 35.8567 70.1928 35.8748 70.4032V83.6414ZM42.4629 91.4268C42.5162 91.4199 42.5704 91.4245 42.6218 91.4402C42.6733 91.4559 42.7207 91.4824 42.7611 91.5179C42.8015 91.5535 42.8339 91.5972 42.856 91.6462C42.8782 91.6952 42.8896 91.7483 42.8896 91.8021C42.8896 91.8559 42.8782 91.909 42.856 91.958C42.8339 92.007 42.8015 92.0508 42.7611 92.0863C42.7207 92.1218 42.6733 92.1483 42.6218 92.164C42.5704 92.1797 42.5162 92.1843 42.4629 92.1774H40.4467V94.0385H42.6986C42.8079 94.0316 42.9154 94.0682 42.9979 94.1402C43.0804 94.2122 43.1311 94.3139 43.1391 94.4231C43.1311 94.5323 43.0804 94.6339 42.9979 94.7059C42.9154 94.7779 42.8079 94.8145 42.6986 94.8077H39.9567C39.8474 94.8145 39.7398 94.7779 39.6574 94.7059C39.5749 94.6339 39.5242 94.5323 39.5162 94.4231V89.7395C39.5242 89.6303 39.5749 89.5286 39.6574 89.4566C39.7398 89.3846 39.8474 89.348 39.9567 89.3548H42.7482C42.8041 89.3478 42.8608 89.3528 42.9147 89.3693C42.9685 89.3859 43.0182 89.4138 43.0604 89.451C43.1026 89.4883 43.1365 89.5341 43.1596 89.5854C43.1828 89.6368 43.1948 89.6924 43.1948 89.7488C43.1948 89.8051 43.1828 89.8608 43.1596 89.9121C43.1365 89.9634 43.1026 90.0092 43.0604 90.0465C43.0182 90.0838 42.9685 90.1116 42.9147 90.1282C42.8608 90.1448 42.8041 90.1497 42.7482 90.1427H40.4219V91.4392L42.4629 91.4268ZM45.5646 83.84C45.178 84.0887 44.761 84.2867 44.3239 84.4293C43.4147 84.7107 42.4416 84.7107 41.5323 84.4293C41.0948 84.288 40.6777 84.0898 40.2917 83.84C39.6458 83.4049 39.1105 82.825 38.7284 82.1464C38.3366 81.4432 38.1356 80.6498 38.1453 79.8449V74.3362C38.1453 74.2262 38.1669 74.1174 38.209 74.0157C38.2511 73.9141 38.3128 73.8218 38.3905 73.744C38.4683 73.6663 38.5606 73.6046 38.6622 73.5625C38.7638 73.5204 38.8727 73.4988 38.9827 73.4988C39.0927 73.4988 39.2016 73.5204 39.3032 73.5625C39.4048 73.6046 39.4971 73.6663 39.5749 73.744C39.6527 73.8218 39.7144 73.9141 39.7564 74.0157C39.7985 74.1174 39.8202 74.2262 39.8202 74.3362V79.8325C39.8157 80.2588 39.9002 80.6814 40.0683 81.0732C40.3854 81.8159 40.9796 82.4056 41.7247 82.7171C42.1161 82.8863 42.5389 82.9709 42.9653 82.9653C43.3796 82.9694 43.79 82.8848 44.1688 82.7171C44.5364 82.5592 44.8726 82.3365 45.1614 82.0595C45.4542 81.7727 45.6863 81.43 45.8441 81.0517C46.0018 80.6733 46.0818 80.2672 46.0795 79.8573V74.3362C46.0695 74.2198 46.0838 74.1025 46.1215 73.9919C46.1592 73.8812 46.2194 73.7796 46.2985 73.6935C46.3775 73.6074 46.4736 73.5386 46.5806 73.4916C46.6876 73.4446 46.8032 73.4203 46.9201 73.4203C47.0369 73.4203 47.1526 73.4446 47.2596 73.4916C47.3666 73.5386 47.4626 73.6074 47.5417 73.6935C47.6207 73.7796 47.681 73.8812 47.7187 73.9919C47.7564 74.1025 47.7707 74.2198 47.7606 74.3362V79.8325C47.7676 80.6252 47.5745 81.4068 47.1993 82.1051C46.8242 82.8034 46.279 83.3958 45.6142 83.8275L45.5646 83.84ZM50.0001 94.8201H47.4256C47.3719 94.8235 47.3179 94.8162 47.267 94.7986C47.216 94.7811 47.169 94.7537 47.1287 94.718C47.0883 94.6822 47.0554 94.6389 47.0319 94.5904C47.0083 94.5419 46.9946 94.4893 46.9914 94.4355V89.7333C47.0045 89.6215 47.0581 89.5184 47.1422 89.4436C47.2262 89.3688 47.3348 89.3275 47.4474 89.3275C47.5599 89.3275 47.6685 89.3688 47.7525 89.4436C47.8366 89.5184 47.8903 89.6215 47.9033 89.7333V94.0385H50.0001C50.0572 94.0282 50.1159 94.0307 50.1721 94.0456C50.2282 94.0605 50.2803 94.0876 50.3248 94.1248C50.3693 94.1621 50.4052 94.2087 50.4297 94.2613C50.4543 94.3139 50.467 94.3712 50.467 94.4293C50.467 94.4873 50.4543 94.5447 50.4297 94.5973C50.4052 94.6499 50.3693 94.6965 50.3248 94.7337C50.2803 94.771 50.2282 94.798 50.1721 94.813C50.1159 94.8279 50.0572 94.8303 50.0001 94.8201ZM55.3599 94.4107C55.3468 94.5224 55.2932 94.6255 55.2091 94.7003C55.1251 94.7751 55.0165 94.8165 54.9039 94.8165C54.7914 94.8165 54.6828 94.7751 54.5988 94.7003C54.5147 94.6255 54.461 94.5224 54.448 94.4107V89.7333C54.461 89.6215 54.5147 89.5184 54.5988 89.4436C54.6828 89.3688 54.7914 89.3275 54.9039 89.3275C55.0165 89.3275 55.1251 89.3688 55.2091 89.4436C55.2932 89.5184 55.3468 89.6215 55.3599 89.7333V94.4107ZM62.6366 90.1055H61.5386V94.4107C61.5207 94.5179 61.4654 94.6153 61.3825 94.6856C61.2996 94.7559 61.1944 94.7945 61.0857 94.7945C60.977 94.7945 60.8718 94.7559 60.7889 94.6856C60.706 94.6153 60.6507 94.5179 60.6329 94.4107V90.1055H59.5286C59.4723 90.1156 59.4145 90.1133 59.3592 90.0986C59.3039 90.084 59.2525 90.0574 59.2086 90.0207C59.1648 89.984 59.1295 89.9382 59.1052 89.8864C59.081 89.8345 59.0685 89.778 59.0685 89.7208C59.0685 89.6637 59.081 89.6071 59.1052 89.5553C59.1295 89.5035 59.1648 89.4576 59.2086 89.421C59.2525 89.3843 59.3039 89.3577 59.3592 89.343C59.4145 89.3284 59.4723 89.3261 59.5286 89.3362H62.6304C62.6867 89.3261 62.7445 89.3284 62.7998 89.343C62.8551 89.3577 62.9065 89.3843 62.9504 89.421C62.9942 89.4576 63.0295 89.5035 63.0538 89.5553C63.078 89.6071 63.0905 89.6637 63.0905 89.7208C63.0905 89.778 63.078 89.8345 63.0538 89.8864C63.0295 89.9382 62.9942 89.984 62.9504 90.0207C62.9065 90.0574 62.8551 90.084 62.7998 90.0986C62.7445 90.1133 62.6867 90.1156 62.6304 90.1055H62.6366ZM65.7383 83.7717V78.2258C65.7437 77.8 65.6613 77.3777 65.4964 76.9851C65.3317 76.6186 65.1027 76.2845 64.8202 75.9988C64.5327 75.7127 64.1938 75.4833 63.8214 75.3226C63.4404 75.155 63.028 75.0704 62.6118 75.0744C62.1853 75.0688 61.7625 75.1534 61.3711 75.3226C60.9932 75.48 60.6497 75.7097 60.3599 75.9988C60.0759 76.2856 59.8468 76.622 59.6837 76.9913C59.5196 77.3735 59.4352 77.7851 59.4356 78.201V83.7469C59.4456 83.8633 59.4313 83.9806 59.3936 84.0913C59.3559 84.2019 59.2956 84.3035 59.2166 84.3896C59.1376 84.4757 59.0415 84.5445 58.9345 84.5915C58.8275 84.6386 58.7119 84.6628 58.595 84.6628C58.4781 84.6628 58.3625 84.6386 58.2555 84.5915C58.1485 84.5445 58.0524 84.4757 57.9734 84.3896C57.8944 84.3035 57.8341 84.2019 57.7964 84.0913C57.7587 83.9806 57.7444 83.8633 57.7544 83.7469V78.201C57.7566 77.7849 57.6721 77.3729 57.5063 76.9913C57.1931 76.2381 56.5958 75.6386 55.8438 75.3226C55.4527 75.1521 55.0296 75.0675 54.6031 75.0744C54.1768 75.071 53.7545 75.1555 53.3624 75.3226C52.9873 75.4817 52.6461 75.7112 52.3574 75.9988C52.0695 76.2824 51.8398 76.6196 51.6812 76.9913C51.5171 77.3735 51.4327 77.7851 51.4331 78.201V83.7469C51.4431 83.8633 51.4288 83.9806 51.3911 84.0913C51.3534 84.2019 51.2931 84.3035 51.2141 84.3896C51.1351 84.4757 51.039 84.5445 50.932 84.5915C50.825 84.6386 50.7094 84.6628 50.5925 84.6628C50.4756 84.6628 50.36 84.6386 50.253 84.5915C50.146 84.5445 50.05 84.4757 49.9709 84.3896C49.8919 84.3035 49.8316 84.2019 49.7939 84.0913C49.7562 83.9806 49.7419 83.8633 49.7519 83.7469V77.8784C49.7524 77.1799 49.9261 76.4925 50.2573 75.8776C50.5886 75.2626 51.0672 74.7395 51.6502 74.3548L51.9046 74.1873C52.29 73.9365 52.7073 73.7383 53.1453 73.598C53.602 73.4607 54.0765 73.3917 54.5534 73.3933C55.0324 73.3921 55.5089 73.4611 55.9678 73.598C56.4082 73.7321 56.8264 73.9307 57.2085 74.1873C57.6227 74.4608 57.9912 74.7979 58.3003 75.1861L58.5361 75.4901L58.778 75.1861C59.0782 74.7989 59.4359 74.46 59.8388 74.1811C60.2255 73.9341 60.6425 73.7381 61.0795 73.598C62.0005 73.3248 62.981 73.3248 63.9021 73.598C64.343 73.7309 64.7612 73.9295 65.1428 74.1873C65.8065 74.6256 66.3512 75.2216 66.728 75.9221C67.1047 76.6226 67.3018 77.4056 67.3016 78.201V83.7469C67.3016 83.9706 67.2127 84.1852 67.0545 84.3435C66.8963 84.5017 66.6817 84.5906 66.4579 84.5906C66.2342 84.5906 66.0196 84.5017 65.8613 84.3435C65.7031 84.1852 65.6142 83.9706 65.6142 83.7469L65.7383 83.7717ZM69.7582 91.4268C69.8115 91.4199 69.8657 91.4245 69.9171 91.4402C69.9685 91.4559 70.016 91.4824 70.0564 91.5179C70.0968 91.5535 70.1291 91.5972 70.1513 91.6462C70.1735 91.6952 70.1849 91.7483 70.1849 91.8021C70.1849 91.8559 70.1735 91.909 70.1513 91.958C70.1291 92.007 70.0968 92.0508 70.0564 92.0863C70.016 92.1218 69.9685 92.1483 69.9171 92.164C69.8657 92.1797 69.8115 92.1843 69.7582 92.1774H67.7358V94.0385H69.9939C70.1032 94.0316 70.2107 94.0682 70.2932 94.1402C70.3757 94.2122 70.4264 94.3139 70.4343 94.4231C70.4264 94.5323 70.3757 94.6339 70.2932 94.7059C70.2107 94.7779 70.1032 94.8145 69.9939 94.8077H67.252C67.1427 94.8145 67.0351 94.7779 66.9527 94.7059C66.8702 94.6339 66.8195 94.5323 66.8115 94.4231V89.7395C66.8195 89.6303 66.8702 89.5286 66.9527 89.4566C67.0351 89.3846 67.1427 89.348 67.252 89.3548H70.0435C70.0994 89.3478 70.1561 89.3528 70.21 89.3693C70.2638 89.3859 70.3135 89.4138 70.3557 89.451C70.3979 89.4883 70.4318 89.5341 70.4549 89.5854C70.4781 89.6368 70.4901 89.6924 70.4901 89.7488C70.4901 89.8051 70.4781 89.8608 70.4549 89.9121C70.4318 89.9634 70.3979 90.0092 70.3557 90.0465C70.3135 90.0838 70.2638 90.1116 70.21 90.1282C70.1561 90.1448 70.0994 90.1497 70.0435 90.1427H67.711V91.4392L69.7582 91.4268ZM79.9195 81.2283C79.6367 81.8919 79.228 82.4944 78.716 83.0025C78.2194 83.5107 77.6241 83.9118 76.9666 84.1811C75.5744 84.7467 74.0164 84.7467 72.6242 84.1811C71.9689 83.914 71.3755 83.5149 70.881 83.0087C70.3678 82.4979 69.9572 81.8935 69.6713 81.2283C69.3816 80.5371 69.2359 79.7941 69.2433 79.0447V70.397C69.2449 70.1765 69.3328 69.9653 69.4881 69.8088C69.6435 69.6523 69.854 69.5628 70.0745 69.5596C70.1847 69.5587 70.294 69.5798 70.396 69.6216C70.498 69.6634 70.5906 69.7251 70.6686 69.803C70.7465 69.8809 70.8081 69.9736 70.8499 70.0756C70.8917 70.1775 70.9128 70.2868 70.912 70.397V74.8015L71.3959 74.4603C72.3342 73.779 73.4756 73.4357 74.6341 73.4864C75.4464 73.4721 76.2537 73.6175 77.01 73.9144C77.6683 74.1908 78.2635 74.5981 78.7594 75.1117C79.2721 75.6216 79.6808 76.2263 79.9629 76.8921C80.2503 77.5731 80.3959 78.3055 80.3909 79.0447C80.384 79.797 80.2236 80.5401 79.9195 81.2283ZM91.5634 79.8511C91.5745 80.6562 91.3733 81.45 90.9802 82.1526C90.6068 82.8394 90.0672 83.4217 89.4108 83.8462C89.0248 84.096 88.6076 84.2942 88.1701 84.4355C87.2608 84.7169 86.2878 84.7169 85.3785 84.4355C84.9403 84.2958 84.5229 84.0976 84.1378 83.8462C83.4888 83.4129 82.9511 82.8327 82.5683 82.1526C82.1766 81.4494 81.9756 80.656 81.9852 79.8511V74.3362C81.9752 74.2198 81.9895 74.1025 82.0272 73.9919C82.0649 73.8812 82.1252 73.7796 82.2042 73.6935C82.2832 73.6074 82.3793 73.5386 82.4863 73.4916C82.5933 73.4446 82.7089 73.4203 82.8258 73.4203C82.9427 73.4203 83.0583 73.4446 83.1653 73.4916C83.2723 73.5386 83.3683 73.6074 83.4474 73.6935C83.5264 73.7796 83.5867 73.8812 83.6244 73.9919C83.6621 74.1025 83.6764 74.2198 83.6663 74.3362V79.8325C83.6591 80.2585 83.7416 80.6812 83.9083 81.0732C84.0701 81.4365 84.2948 81.7683 84.5721 82.0534C84.854 82.3402 85.1919 82.5661 85.5646 82.7171C85.9561 82.8863 86.3789 82.9709 86.8053 82.9653C87.2196 82.9694 87.6299 82.8848 88.0088 82.7171C88.3768 82.56 88.7132 82.3372 89.0013 82.0595C89.2886 81.7777 89.5182 81.4427 89.6775 81.0732C89.8442 80.6812 89.9266 80.2585 89.9194 79.8325V74.3362C89.9194 74.1125 90.0083 73.8979 90.1666 73.7397C90.3248 73.5814 90.5394 73.4926 90.7631 73.4926C90.9869 73.4926 91.2015 73.5814 91.3597 73.7397C91.5179 73.8979 91.6068 74.1125 91.6068 74.3362L91.5634 79.8511ZM99.3177 82.7667C99.1315 83.1449 98.8746 83.484 98.5609 83.7655C98.2413 84.0557 97.8684 84.2811 97.4629 84.4293C97.0659 84.5764 96.6455 84.6499 96.2222 84.6464H96.1043C95.4794 84.6245 94.8697 84.4476 94.3301 84.1315C94.2012 84.0518 94.0769 83.9648 93.9579 83.871C93.8651 83.7972 93.7909 83.7026 93.7413 83.5948C93.6917 83.487 93.6682 83.3691 93.6725 83.2506C93.6814 83.1281 93.7171 83.009 93.7771 82.9017C93.8372 82.7945 93.9201 82.7019 94.0199 82.6303C94.1749 82.5173 94.3617 82.4565 94.5535 82.4565C94.7452 82.4565 94.932 82.5173 95.0869 82.6303C95.3994 82.8596 95.7788 82.9796 96.1664 82.9715C96.598 82.9861 97.0212 82.8501 97.3636 82.5869C97.5351 82.4601 97.6739 82.2945 97.7689 82.1036C97.8638 81.9127 97.912 81.702 97.9095 81.4888C97.9271 81.3799 97.9271 81.2689 97.9095 81.16L97.8351 80.8871C97.6855 80.5818 97.4449 80.3304 97.1465 80.1675L96.9604 80.0558C96.7312 79.9235 96.4951 79.8034 96.2532 79.696C95.9989 79.5906 95.7507 79.4727 95.4902 79.3486C95.2296 79.2246 94.9877 79.0943 94.7458 78.9578C94.5284 78.8404 94.321 78.7055 94.1254 78.5546C93.7949 78.2482 93.5255 77.8819 93.3314 77.4752C93.1747 77.1224 93.1025 76.7379 93.1204 76.3524C93.1262 75.9616 93.2217 75.5775 93.3996 75.2295C93.5788 74.8858 93.8257 74.582 94.1254 74.3362C94.4272 74.0673 94.7764 73.857 95.1552 73.7159C95.5218 73.5773 95.9109 73.5079 96.3028 73.5112C96.8952 73.5179 97.4776 73.6646 98.0026 73.9392C98.1018 73.995 98.1949 74.0571 98.2879 74.1191C98.3716 74.1786 98.4392 74.2579 98.4847 74.3499C98.5301 74.4419 98.5521 74.5438 98.5485 74.6464C98.5484 74.7552 98.5217 74.8623 98.4709 74.9585C98.4201 75.0547 98.3467 75.1371 98.2569 75.1985L97.9592 75.4032C97.8188 75.4594 97.6698 75.4909 97.5187 75.4963H97.4319L97.2147 75.4156C96.9616 75.2653 96.6717 75.188 96.3773 75.1923C96.0015 75.1713 95.6297 75.2785 95.3227 75.4963C95.1734 75.5934 95.0501 75.7256 94.9636 75.8813C94.8771 76.037 94.83 76.2115 94.8264 76.3896L94.8822 76.6936C94.9266 76.8802 95.0235 77.0503 95.1614 77.1836C95.3163 77.3343 95.4998 77.4524 95.7011 77.531C95.9616 77.6861 96.2904 77.8598 96.6626 78.0335C97.0348 78.2072 97.376 78.3871 97.742 78.5856C98.0152 78.7081 98.2683 78.8712 98.4927 79.0695C98.6963 79.2598 98.8831 79.4673 99.051 79.6898C99.2379 79.9572 99.3862 80.2495 99.4914 80.5583C99.6003 80.8795 99.6487 81.2182 99.6341 81.5571C99.6197 81.9773 99.5161 82.3896 99.3301 82.7667H99.3177Z" fill="white"/>
</g>
<defs>
<clipPath id="clip0">
<rect width="110" height="110" fill="white"/>
</clipPath>
</defs>
</svg>
