<svg id="Warstwa_1" data-name="Warstwa 1" xmlns="http://www.w3.org/2000/svg" viewBox="0 0 236.5 84.16"><defs><style>.cls-1{fill:#00674c;}.cls-2{fill:#ceef9d;}</style></defs><path class="cls-1" d="M224.67,84.16H11.82A11.82,11.82,0,0,1,0,72.33V11.82A11.82,11.82,0,0,1,11.82,0H224.67A11.83,11.83,0,0,1,236.5,11.82V72.33A11.83,11.83,0,0,1,224.67,84.16Z"/><path class="cls-2" d="M37,65.66,18.57,34.43a.37.37,0,0,1,.34-.54H31.06a.38.38,0,0,1,.37.3l6.28,31.22A.39.39,0,0,1,37,65.66Z"/><path class="cls-2" d="M41.48,64.73,35.61,18.65a.38.38,0,0,1,.38-.43H47.72a.39.39,0,0,1,.38.43L42.22,64.73A.37.37,0,0,1,41.48,64.73Z"/><path class="cls-2" d="M65,34.43,46.57,65.65a.38.38,0,0,1-.7-.24l6.27-31.23a.38.38,0,0,1,.37-.29H64.66A.37.37,0,0,1,65,34.43Z"/><path class="cls-2" d="M97.45,47.65a1.26,1.26,0,0,1-.49,1,9.18,9.18,0,0,1-1.43.92,8.41,8.41,0,0,1-7,.22A8.64,8.64,0,0,1,85.83,48,8.77,8.77,0,0,1,84,45.31,8.23,8.23,0,0,1,83.35,42,8.13,8.13,0,0,1,84,38.78a8.65,8.65,0,0,1,1.82-2.68,8.5,8.5,0,0,1,2.69-1.81,8.34,8.34,0,0,1,3.25-.65,8.23,8.23,0,0,1,3.77.87,8,8,0,0,1,1.47.94,1.2,1.2,0,0,1,.46,1,1.27,1.27,0,0,1-1.26,1.26,1.41,1.41,0,0,1-.84-.3,6.55,6.55,0,0,0-1-.61,6,6,0,0,0-6.8,1.11,6,6,0,0,0-1.26,1.87A5.77,5.77,0,0,0,85.9,42a5.67,5.67,0,0,0,.46,2.28,6.07,6.07,0,0,0,1.25,1.87,6.39,6.39,0,0,0,1.88,1.26,5.51,5.51,0,0,0,2.28.47,5.74,5.74,0,0,0,2.64-.62,6.79,6.79,0,0,0,1-.61,1.41,1.41,0,0,1,.83-.28,1.23,1.23,0,0,1,.76.26A1.28,1.28,0,0,1,97.45,47.65Z"/><path class="cls-2" d="M121.92,29V49a1.28,1.28,0,0,1-2.55,0V29a1.28,1.28,0,0,1,2.55,0Z"/><path class="cls-2" d="M139.85,34.94v8.33a7.1,7.1,0,0,1-.87,3.48,7.21,7.21,0,0,1-2.38,2.56,7.85,7.85,0,0,1-1.9.89,7.08,7.08,0,0,1-4.21,0,7.67,7.67,0,0,1-1.9-.89,7.44,7.44,0,0,1-2.36-2.56,6.91,6.91,0,0,1-.89-3.48V34.94a1.27,1.27,0,1,1,2.54,0v8.33a4.71,4.71,0,0,0,1.37,3.32,4.82,4.82,0,0,0,1.51,1,4.62,4.62,0,0,0,1.84.37,4.49,4.49,0,0,0,1.82-.37,5.25,5.25,0,0,0,1.5-1,4.69,4.69,0,0,0,1-1.5,4.57,4.57,0,0,0,.37-1.83V34.94a1.27,1.27,0,1,1,2.54,0Z"/><path class="cls-2" d="M169.65,40.81v8.4a1.28,1.28,0,0,1-2.55,0v-8.4a4.71,4.71,0,0,0-.37-1.83,5.17,5.17,0,0,0-1-1.5,5,5,0,0,0-1.51-1,4.51,4.51,0,0,0-1.83-.38,4.82,4.82,0,0,0-3.37,1.4,4.84,4.84,0,0,0-1,1.5,4.71,4.71,0,0,0-.37,1.83v8.4a1.27,1.27,0,1,1-2.54,0v-8.4a4.62,4.62,0,0,0-.38-1.83,5.16,5.16,0,0,0-1-1.51,4.89,4.89,0,0,0-1.5-1,4.56,4.56,0,0,0-1.84-.38,4.71,4.71,0,0,0-1.85.38A4.79,4.79,0,0,0,145.93,39a4.54,4.54,0,0,0-.38,1.83v8.4a1.27,1.27,0,1,1-2.54,0V40.33A6.36,6.36,0,0,1,145.88,35l.39-.26a7.48,7.48,0,0,1,1.92-.89,7.13,7.13,0,0,1,2.13-.32A7.25,7.25,0,0,1,156,36.25l.36.46.36-.46a7.25,7.25,0,0,1,1.61-1.52,8.06,8.06,0,0,1,1.91-.88,7.32,7.32,0,0,1,4.28,0,7.28,7.28,0,0,1,5.14,7Z"/><path class="cls-2" d="M188.62,38.79a8.36,8.36,0,0,0-1.82-2.7,8.11,8.11,0,0,0-2.65-1.81,9.48,9.48,0,0,0-3.59-.65,7.76,7.76,0,0,0-4.9,1.48l-.73.52L175,29a1.25,1.25,0,0,0-1.26-1.27A1.28,1.28,0,0,0,172.44,29V42.05a8.2,8.2,0,0,0,.65,3.3A8.32,8.32,0,0,0,174.91,48a7.92,7.92,0,0,0,2.64,1.78,8.63,8.63,0,0,0,3.3.65,8.41,8.41,0,0,0,3.3-.65A7.89,7.89,0,0,0,186.8,48a8.27,8.27,0,0,0,1.82-2.68,8.41,8.41,0,0,0,.65-3.3A8.08,8.08,0,0,0,188.62,38.79ZM185,46.21a6,6,0,0,1-1.86,1.27,5.58,5.58,0,0,1-2.27.46,5.69,5.69,0,0,1-2.3-.46,6.26,6.26,0,0,1-1.86-1.27,6.11,6.11,0,0,1-1.26-1.86,5.53,5.53,0,0,1-.5-2.29l.08-3.49a8,8,0,0,1,5.25-2.42,4.87,4.87,0,0,1,.66,0l.43.06a5.83,5.83,0,0,1,1.76.4A5.62,5.62,0,0,1,185,37.9a6.42,6.42,0,0,1,1.26,1.9,6.06,6.06,0,0,1,.45,2.25,6.29,6.29,0,0,1-.46,2.3A6.13,6.13,0,0,1,185,46.21Z"/><path class="cls-2" d="M206.24,34.94v8.33a7,7,0,0,1-.88,3.48A7.21,7.21,0,0,1,203,49.31a7.51,7.51,0,0,1-1.9.89,6.93,6.93,0,0,1-2.1.32,7,7,0,0,1-2.11-.32,7.85,7.85,0,0,1-1.9-.89,7.54,7.54,0,0,1-2.36-2.56,6.94,6.94,0,0,1-.89-3.48V34.94a1.27,1.27,0,1,1,2.54,0v8.33a4.64,4.64,0,0,0,.37,1.83,5,5,0,0,0,1,1.49A4.75,4.75,0,0,0,199,48a4.66,4.66,0,0,0,1.82-.37,5.18,5.18,0,0,0,1.5-1,4.69,4.69,0,0,0,1-1.5,4.47,4.47,0,0,0,.37-1.83V34.94a1.28,1.28,0,0,1,2.55,0Z"/><path class="cls-2" d="M218.43,45.81a4.51,4.51,0,0,1-.45,1.86,5,5,0,0,1-1.15,1.52,5,5,0,0,1-1.66,1,5.17,5.17,0,0,1-1.84.33h-.18a5.81,5.81,0,0,1-2.69-.78c-.19-.12-.38-.25-.56-.39a1.17,1.17,0,0,1-.43-.94,1.26,1.26,0,0,1,.53-1,1.4,1.4,0,0,1,.79-.25,1.41,1.41,0,0,1,.82.27,2.71,2.71,0,0,0,1.63.52,2.77,2.77,0,0,0,1.82-.59,2,2,0,0,0,.83-1.65,1.5,1.5,0,0,0-.06-.49l-.11-.41a2.47,2.47,0,0,0-1-1.09l-.29-.17c-.31-.18-.68-.36-1.07-.54s-.76-.34-1.15-.53-.77-.38-1.14-.59a6.39,6.39,0,0,1-.89-.61,5.2,5.2,0,0,1-1.2-1.63,3.77,3.77,0,0,1-.33-1.7,3.93,3.93,0,0,1,.43-1.7,4.43,4.43,0,0,1,1-1.37,5,5,0,0,1,1.55-.92,4.79,4.79,0,0,1,1.74-.31,5.48,5.48,0,0,1,2.57.65,4.68,4.68,0,0,1,.44.27,1,1,0,0,1,.4.79,1,1,0,0,1-.45.84l-.45.31a2.15,2.15,0,0,1-.66.15h-.13l-.34-.13a2.44,2.44,0,0,0-1.26-.33,2.55,2.55,0,0,0-1.6.46,1.63,1.63,0,0,0-.75,1.34l.09.47a1.4,1.4,0,0,0,.42.73,2.39,2.39,0,0,0,.82.54,15.76,15.76,0,0,0,1.45.75c.53.25,1.08.53,1.63.84a4.77,4.77,0,0,1,1.14.73,6.78,6.78,0,0,1,.84.91,5.29,5.29,0,0,1,.67,1.32A4.07,4.07,0,0,1,218.43,45.81Z"/><path class="cls-2" d="M115.78,38.64a8.48,8.48,0,0,0-4.46-4.46,8.29,8.29,0,0,0-3.26-.65,8.41,8.41,0,0,0-3.27.65,8.49,8.49,0,0,0-2.67,1.8,8.29,8.29,0,0,0-1.78,2.66,8.43,8.43,0,0,0,0,6.54,8.27,8.27,0,0,0,4.45,4.45,8.53,8.53,0,0,0,6.53,0,8.46,8.46,0,0,0,4.46-11Zm-3.58,7.41a6,6,0,0,1-1.87,1.25,5.71,5.71,0,0,1-2.26.46,5.79,5.79,0,0,1-2.27-.46,6,6,0,0,1-1.86-1.25,6.46,6.46,0,0,1-1.27-1.86,5.77,5.77,0,0,1,0-4.56,6.33,6.33,0,0,1,1.27-1.86,5.82,5.82,0,0,1,1.87-1.26,5.9,5.9,0,0,1,4.52,0,5.71,5.71,0,0,1,1.87,1.26,6.07,6.07,0,0,1,1.25,1.87,5.88,5.88,0,0,1-1.25,6.41Z"/><path class="cls-2" d="M170.12,58.83h3.53a.6.6,0,1,0,0-1.19h-4.23a.62.62,0,0,0-.66.58v7.09a.62.62,0,0,0,.66.58h4.15a.59.59,0,1,0,0-1.16h-3.45V61.92h3.06a.61.61,0,0,0,.64-.56.61.61,0,0,0-.64-.57h-3.06Zm-12.38,0h1.67V65.3a.69.69,0,0,0,1.36,0V58.79h1.67a.59.59,0,1,0,0-1.16h-4.7a.59.59,0,1,0,0,1.16Zm-7,7.13h0a.65.65,0,0,0,.69-.61V58.23a.7.7,0,0,0-1.38,0v7.08A.66.66,0,0,0,150.73,65.92Zm-11.28-8.29h0a.65.65,0,0,0-.69.6v7.11a.63.63,0,0,0,.66.59h3.9a.6.6,0,1,0,0-1.19h-3.18V58.23A.65.65,0,0,0,139.45,57.63Zm-10.62,1.2h3.52a.6.6,0,1,0,0-1.19h-4.22a.63.63,0,0,0-.67.58v7.09a.63.63,0,0,0,.67.58h4.15a.58.58,0,1,0,0-1.16h-3.45V61.92h3a.61.61,0,0,0,.65-.56.62.62,0,0,0-.65-.57h-3Z"/></svg>