<svg id="Warstwa_1" data-name="Warstwa 1" xmlns="http://www.w3.org/2000/svg" viewBox="0 0 335.66 183.33"><defs><style>.cls-1{fill:#00674c;}.cls-2{fill:#ceef9d;}</style></defs><path class="cls-1" d="M274.25,133.74H61.41a11.83,11.83,0,0,1-11.83-11.82V61.41A11.83,11.83,0,0,1,61.41,49.58H274.25a11.83,11.83,0,0,1,11.83,11.83v60.51A11.82,11.82,0,0,1,274.25,133.74Z"/><path class="cls-2" d="M86.57,115.24,68.16,84a.36.36,0,0,1,.34-.54H80.64a.37.37,0,0,1,.37.29L87.29,115A.39.39,0,0,1,86.57,115.24Z"/><path class="cls-2" d="M91.06,114.31,85.19,68.23a.37.37,0,0,1,.38-.42H97.31a.37.37,0,0,1,.37.42l-5.87,46.08A.38.38,0,0,1,91.06,114.31Z"/><path class="cls-2" d="M114.57,84,96.15,115.23a.38.38,0,0,1-.7-.24l6.27-31.23a.38.38,0,0,1,.38-.29h12.14A.38.38,0,0,1,114.57,84Z"/><path class="cls-2" d="M147,97.23a1.31,1.31,0,0,1-.48,1,9.23,9.23,0,0,1-1.44.91,8,8,0,0,1-3.75.88,8.32,8.32,0,0,1-3.26-.65,8.67,8.67,0,0,1-2.69-1.81,8.53,8.53,0,0,1-1.82-2.68,8.53,8.53,0,0,1,0-6.53,8.54,8.54,0,0,1,4.51-4.49,8.39,8.39,0,0,1,3.26-.65,8.22,8.22,0,0,1,3.76.87,7.41,7.41,0,0,1,1.47,1,1.18,1.18,0,0,1,.46,1,1.26,1.26,0,0,1-.49,1,1.25,1.25,0,0,1-.76.26A1.42,1.42,0,0,1,145,87a5.3,5.3,0,0,0-1-.61,5.87,5.87,0,0,0-2.63-.6,5.88,5.88,0,0,0-4.16,1.7,5.9,5.9,0,0,0-1.27,1.87,5.89,5.89,0,0,0,0,4.54,5.71,5.71,0,0,0,1.26,1.87A6.22,6.22,0,0,0,139.07,97a5.76,5.76,0,0,0,4.92-.15,6.21,6.21,0,0,0,1-.6,1.35,1.35,0,0,1,.83-.29,1.23,1.23,0,0,1,.76.26A1.25,1.25,0,0,1,147,97.23Z"/><path class="cls-2" d="M171.5,78.55v20a1.28,1.28,0,0,1-2.55,0v-20a1.28,1.28,0,0,1,2.55,0Z"/><path class="cls-2" d="M189.44,84.53v8.32a7.08,7.08,0,0,1-.88,3.48,7.22,7.22,0,0,1-2.37,2.57,8,8,0,0,1-1.9.88,7.12,7.12,0,0,1-4.22,0,7.49,7.49,0,0,1-1.9-.89,7.36,7.36,0,0,1-2.36-2.56,7,7,0,0,1-.89-3.48V84.53a1.27,1.27,0,1,1,2.54,0v8.32a4.72,4.72,0,0,0,1.38,3.32,4.77,4.77,0,0,0,3.34,1.39,4.46,4.46,0,0,0,1.82-.38,4.81,4.81,0,0,0,1.5-1,4.61,4.61,0,0,0,1.4-3.33V84.53a1.27,1.27,0,1,1,2.54,0Z"/><path class="cls-2" d="M219.23,90.4v8.39a1.28,1.28,0,0,1-2.55,0V90.4a4.58,4.58,0,0,0-.37-1.84,5.11,5.11,0,0,0-1-1.5,4.85,4.85,0,0,0-1.51-1,4.51,4.51,0,0,0-1.83-.38,4.87,4.87,0,0,0-3.37,1.4,4.85,4.85,0,0,0-1,1.51,4.51,4.51,0,0,0-.38,1.83v8.39a1.27,1.27,0,1,1-2.54,0V90.4a4.58,4.58,0,0,0-.38-1.83,5,5,0,0,0-1-1.51,4.81,4.81,0,0,0-1.5-1,4.56,4.56,0,0,0-1.84-.38,4.63,4.63,0,0,0-1.84.38,4.83,4.83,0,0,0-1.53,1,5,5,0,0,0-1,1.51,4.67,4.67,0,0,0-.37,1.83v8.39a1.28,1.28,0,0,1-2.55,0V89.91a6.39,6.39,0,0,1,2.87-5.33l.39-.26a7.78,7.78,0,0,1,1.92-.88,7.33,7.33,0,0,1,6.15.88,7.37,7.37,0,0,1,1.65,1.52l.36.45.36-.45a7.59,7.59,0,0,1,1.62-1.53,7.78,7.78,0,0,1,1.9-.87,7.34,7.34,0,0,1,6.16.88,7.47,7.47,0,0,1,2.38,2.58A7.24,7.24,0,0,1,219.23,90.4Z"/><path class="cls-2" d="M238.21,88.37a8.78,8.78,0,0,0-1.83-2.7,8.07,8.07,0,0,0-2.64-1.81,9.77,9.77,0,0,0-3.6-.65,7.76,7.76,0,0,0-4.9,1.48l-.73.52,0-6.67a1.24,1.24,0,0,0-1.26-1.26A1.28,1.28,0,0,0,222,78.54V91.63a8.37,8.37,0,0,0,.65,3.3,8.48,8.48,0,0,0,1.82,2.69,7.88,7.88,0,0,0,2.64,1.78,8.7,8.7,0,0,0,6.6,0,7.77,7.77,0,0,0,2.65-1.78,8.21,8.21,0,0,0,2.47-6A8.24,8.24,0,0,0,238.21,88.37ZM234.6,95.8a6.15,6.15,0,0,1-1.87,1.26,5.37,5.37,0,0,1-2.26.46,5.49,5.49,0,0,1-2.3-.46,6.15,6.15,0,0,1-1.87-1.26A6.36,6.36,0,0,1,225,93.94a5.57,5.57,0,0,1-.5-2.3l.08-3.48a8,8,0,0,1,5.25-2.43,4.77,4.77,0,0,1,.66,0l.43,0a6.33,6.33,0,0,1,1.76.4,5.62,5.62,0,0,1,1.89,1.25,6.55,6.55,0,0,1,1.26,1.9,6.07,6.07,0,0,1,.46,2.25,6.46,6.46,0,0,1-.46,2.3A6.37,6.37,0,0,1,234.6,95.8Z"/><path class="cls-2" d="M255.82,84.53v8.32a7,7,0,0,1-.88,3.48,7.13,7.13,0,0,1-2.37,2.57,7.81,7.81,0,0,1-1.9.88,7.12,7.12,0,0,1-4.22,0,7.27,7.27,0,0,1-1.89-.89,7.48,7.48,0,0,1-2.37-2.56,7,7,0,0,1-.89-3.48V84.53a1.28,1.28,0,1,1,2.55,0v8.32a4.52,4.52,0,0,0,.37,1.84,4.89,4.89,0,0,0,1,1.48,4.56,4.56,0,0,0,1.5,1,4.66,4.66,0,0,0,1.84.38,4.46,4.46,0,0,0,1.82-.38,4.92,4.92,0,0,0,1.5-1,4.79,4.79,0,0,0,1-1.49,4.69,4.69,0,0,0,.37-1.84V84.53a1.27,1.27,0,1,1,2.54,0Z"/><path class="cls-2" d="M268,95.4a4.52,4.52,0,0,1-.46,1.86,4.93,4.93,0,0,1-2.81,2.51,5.17,5.17,0,0,1-1.84.33h-.17a5.63,5.63,0,0,1-2.69-.78,5.72,5.72,0,0,1-.57-.39,1.14,1.14,0,0,1-.43-.94,1.28,1.28,0,0,1,.54-1,1.34,1.34,0,0,1,1.6,0,2.74,2.74,0,0,0,1.64.52,2.71,2.71,0,0,0,1.81-.6,2,2,0,0,0,.83-1.65,1.49,1.49,0,0,0-.05-.48l-.11-.41a2.5,2.5,0,0,0-1-1.09l-.29-.18a10.68,10.68,0,0,0-1.07-.53c-.38-.17-.76-.34-1.15-.53s-.76-.39-1.13-.6a6.21,6.21,0,0,1-.9-.61,5.37,5.37,0,0,1-1.2-1.63,3.62,3.62,0,0,1-.32-1.69,3.85,3.85,0,0,1,.42-1.7,4.35,4.35,0,0,1,1.05-1.37,5.05,5.05,0,0,1,1.56-.93,4.76,4.76,0,0,1,1.74-.31,5.73,5.73,0,0,1,2.57.65,4.55,4.55,0,0,1,.43.28,1,1,0,0,1,.4.79,1,1,0,0,1-.45.83l-.45.32a2,2,0,0,1-.66.14h-.13l-.33-.12a2.37,2.37,0,0,0-1.27-.34,2.55,2.55,0,0,0-1.6.46,1.63,1.63,0,0,0-.74,1.35l.08.46a1.46,1.46,0,0,0,.42.74,2.47,2.47,0,0,0,.82.53c.39.23.89.49,1.45.75s1.09.54,1.64.85a4.6,4.6,0,0,1,1.14.72,9.49,9.49,0,0,1,.84.91,5.1,5.1,0,0,1,.66,1.32A4.13,4.13,0,0,1,268,95.4Z"/><path class="cls-2" d="M165.36,88.23a8.52,8.52,0,0,0-1.79-2.67,8.41,8.41,0,0,0-2.67-1.79,8,8,0,0,0-3.26-.65,8.31,8.31,0,0,0-5.93,2.44,8.42,8.42,0,0,0-2.45,5.93,8.3,8.3,0,0,0,.66,3.27,8.33,8.33,0,0,0,7.72,5.1,8,8,0,0,0,3.26-.65,8.24,8.24,0,0,0,4.45-4.46,8,8,0,0,0,.66-3.26A8.29,8.29,0,0,0,165.36,88.23Zm-3.58,7.4a5.82,5.82,0,0,1-6.39,1.25,5.74,5.74,0,0,1-1.87-1.25,6.11,6.11,0,0,1-1.26-1.86,5.71,5.71,0,0,1-.47-2.28,5.63,5.63,0,0,1,.47-2.27,5.9,5.9,0,0,1,1.27-1.87,5.64,5.64,0,0,1,1.86-1.25,5.77,5.77,0,0,1,2.26-.45,5.86,5.86,0,0,1,2.27.45,5.64,5.64,0,0,1,1.86,1.25A6.07,6.07,0,0,1,163,89.22a5.86,5.86,0,0,1,.45,2.27,5.78,5.78,0,0,1-.45,2.27A5.84,5.84,0,0,1,161.78,95.63Z"/><path class="cls-2" d="M219.71,108.41h3.52a.6.6,0,1,0,0-1.19H219a.63.63,0,0,0-.66.58v7.09a.63.63,0,0,0,.66.59h4.15a.59.59,0,1,0,0-1.17h-3.44v-2.8h3a.62.62,0,0,0,.65-.57.61.61,0,0,0-.65-.56h-3Zm-12.39,0H209v6.51a.69.69,0,0,0,1.37,0v-6.51H212a.59.59,0,1,0,0-1.17h-4.71a.59.59,0,1,0,0,1.17Zm-7,7.12h0a.65.65,0,0,0,.69-.61v-7.07a.7.7,0,0,0-1.38,0v7.07A.65.65,0,0,0,200.32,115.5ZM189,107.21h0a.65.65,0,0,0-.69.61v7.11a.63.63,0,0,0,.67.58h3.89a.6.6,0,1,0,0-1.19h-3.18v-6.5A.65.65,0,0,0,189,107.21Zm-10.62,1.2h3.53a.6.6,0,1,0,0-1.19h-4.23a.62.62,0,0,0-.66.58v7.09a.62.62,0,0,0,.66.59h4.15a.59.59,0,1,0,0-1.17h-3.45v-2.8h3.06a.61.61,0,0,0,.64-.57.61.61,0,0,0-.64-.56h-3.06Z"/></svg>