<svg id="Warstwa_1" data-name="Warstwa 1" xmlns="http://www.w3.org/2000/svg" viewBox="0 0 105.47 108"><defs><style>.cls-1{fill:#ceef9d;}</style></defs><path class="cls-1" d="M41.86,107.55.11,32.64a.87.87,0,0,1,.76-1.29H28.42a.88.88,0,0,1,.85.7L43.49,107A.88.88,0,0,1,41.86,107.55Z"/><path class="cls-1" d="M52,105.46,38.73,1a.85.85,0,0,1,.86-1H66.21a.86.86,0,0,1,.85,1L53.74,105.46A.86.86,0,0,1,52,105.46Z"/><path class="cls-1" d="M105.37,32.64,63.6,107.53A.86.86,0,0,1,62,107L76.23,32a.85.85,0,0,1,.85-.7h27.54A.9.9,0,0,1,105.37,32.64Z"/></svg>